<svg width="107" height="82" viewBox="0 0 107 82" fill="none" xmlns="http://www.w3.org/2000/svg">
<path d="M26.5178 72.3418C26.4619 72.3281 26.4036 72.3288 26.3481 72.3438C26.2926 72.3588 26.2416 72.3877 26.1999 72.4278L21.1301 76.6352C20.8853 76.8623 20.7121 77.1576 20.6321 77.4842C20.5299 77.9167 20.6007 78.3726 20.8291 78.7522C21.0574 79.1319 21.4247 79.4043 21.8506 79.51C22.0031 79.5473 22.1599 79.5636 22.3168 79.5584C22.5989 79.5438 22.8727 79.4562 23.112 79.3038C23.3513 79.1514 23.5481 78.9394 23.6836 78.6879L26.7244 72.8631C26.7421 72.8371 26.7546 72.8079 26.7615 72.7771C26.7859 72.6866 26.7739 72.59 26.7283 72.5084C26.6826 72.4268 26.6069 72.3669 26.5178 72.3418Z" fill="url(#paint0_linear)"/>
<path d="M28.0177 0.999355C27.5768 1.02027 27.1621 1.21746 26.8643 1.54777C26.5664 1.87808 26.4097 2.31461 26.4284 2.76184C26.4256 2.80837 26.4256 2.85503 26.4284 2.90155L28.9766 32.9606C28.991 33.0574 29.0401 33.1455 29.1146 33.2079C29.1891 33.2703 29.2837 33.3025 29.3802 33.2985C29.4767 33.2946 29.5684 33.2546 29.6376 33.1862C29.7068 33.1179 29.7487 33.0261 29.7553 32.9283V2.61139C29.7333 2.16474 29.5385 1.74492 29.2132 1.44309C28.8878 1.14127 28.4582 0.981816 28.0177 0.999355Z" fill="url(#paint1_linear)"/>
<path d="M1.19017 54.1376C1.08785 54.3348 1.02491 54.5505 1.00495 54.7723C0.984992 54.9942 1.00842 55.2179 1.07388 55.4306C1.13934 55.6432 1.24554 55.8407 1.38641 56.0116C1.52728 56.1826 1.70003 56.3236 1.89476 56.4267L2.0166 56.4858L16.458 62.0205C16.5486 62.0594 16.6503 62.0628 16.7432 62.03C16.8362 61.9973 16.9139 61.9307 16.9612 61.8431C16.987 61.7987 17.0039 61.7495 17.0109 61.6985C17.018 61.6474 17.015 61.5954 17.0022 61.5455C16.9894 61.4956 16.9671 61.4487 16.9364 61.4076C16.9057 61.3665 16.8674 61.3319 16.8235 61.3058L3.57941 53.4928L3.45756 53.423C3.26271 53.3175 3.04916 53.2523 2.82929 53.2312C2.60941 53.21 2.38759 53.2334 2.17668 53.2999C1.96577 53.3664 1.76997 53.4746 1.60062 53.6184C1.43128 53.7623 1.29177 53.9387 1.19017 54.1376Z" fill="url(#paint2_linear)"/>
<path d="M7.61084 69.3546C7.63418 69.8017 7.83014 70.2215 8.15632 70.5232C8.4825 70.8249 8.91268 70.9842 9.35377 70.9666H9.48621L19.8961 69.0913C19.9916 69.0767 20.0784 69.0268 20.1399 68.9513C20.2014 68.8757 20.2332 68.7798 20.2293 68.6819C20.2253 68.584 20.1859 68.491 20.1186 68.4208C20.0512 68.3506 19.9606 68.3081 19.8643 68.3014L9.34847 67.5921C9.3045 67.5865 9.26 67.5865 9.21603 67.5921C8.99637 67.6004 8.78049 67.6526 8.58079 67.7458C8.38109 67.839 8.20151 67.9712 8.05235 68.135C7.9032 68.2988 7.78741 68.4908 7.71164 68.7001C7.63588 68.9094 7.60162 69.1318 7.61084 69.3546Z" fill="url(#paint3_linear)"/>
<path d="M17.057 12.4924C16.8458 12.5525 16.6484 12.6544 16.4762 12.7921C16.304 12.9298 16.1604 13.1008 16.0535 13.295C15.9467 13.4893 15.8788 13.7031 15.8537 13.9241C15.8286 14.1451 15.8469 14.3689 15.9074 14.5827C15.9191 14.6282 15.9333 14.6731 15.9498 14.7171L24.5849 40.1119C24.6191 40.2057 24.6869 40.2829 24.7747 40.3282C24.8626 40.3736 24.964 40.3837 25.0589 40.3566C25.1537 40.3295 25.235 40.2671 25.2866 40.182C25.3382 40.0968 25.3562 39.995 25.3372 39.897L19.1548 13.7928L19.1231 13.6585C19.0632 13.4441 18.9623 13.2438 18.826 13.0691C18.6897 12.8943 18.5207 12.7486 18.3287 12.6403C18.1368 12.532 17.9256 12.4631 17.7074 12.4378C17.4892 12.4124 17.2681 12.431 17.057 12.4924Z" fill="url(#paint4_linear)"/>
<path d="M10.1275 25.6043C9.73839 25.8096 9.44464 26.1621 9.30981 26.5855C9.17497 27.0089 9.20989 27.469 9.40702 27.8665C9.428 27.9071 9.45098 27.9465 9.47589 27.9847L21.0565 47.2109C21.1086 47.3006 21.1932 47.366 21.2922 47.3931C21.3913 47.4202 21.4968 47.4069 21.5863 47.356C21.6337 47.3336 21.6762 47.3018 21.7112 47.2623C21.7462 47.2229 21.7729 47.1766 21.7897 47.1264C21.8066 47.0762 21.8132 47.023 21.8092 46.9701C21.8052 46.9172 21.7906 46.8657 21.7664 46.8186L12.4373 26.464C12.42 26.4201 12.4006 26.377 12.379 26.3351C12.2787 26.1369 12.1409 25.9607 11.9734 25.8166C11.8059 25.6726 11.612 25.5635 11.4028 25.4956C11.1936 25.4277 10.9733 25.4023 10.7545 25.421C10.5356 25.4396 10.3226 25.5019 10.1275 25.6043Z" fill="url(#paint5_linear)"/>
<path d="M3.34113 38.6137C3.01341 38.9168 2.81763 39.3393 2.79678 39.7887C2.77592 40.238 2.93168 40.6773 3.22988 41.0103L3.32523 41.107L17.5547 54.2988C17.6258 54.3684 17.7208 54.4073 17.8196 54.4073C17.9184 54.4073 18.0133 54.3684 18.0845 54.2988C18.1587 54.2324 18.205 54.1397 18.2138 54.0397C18.2227 53.9398 18.1935 53.8402 18.1321 53.7614L5.76744 38.8179L5.68268 38.7104C5.3825 38.3867 4.96916 38.1953 4.53137 38.1772C4.09359 38.1591 3.66627 38.3158 3.34113 38.6137Z" fill="url(#paint6_linear)"/>
<path d="M42.1243 48.582H40.4079V44.3208H35.9155V48.582H34.1885V38.6143H35.9155V42.6873H40.4079V38.6143H42.1243V48.582Z" fill="#1D1D1B"/>
<path d="M50.2678 48.582H44.4404V38.6143H50.146V40.2263H46.1834V42.7034H49.7381V44.3155H46.1834V46.8947H50.2678V48.582Z" fill="#1D1D1B"/>
<path d="M57.5883 48.6949H55.8613V47.3676C54.6775 47.4274 53.5103 47.0663 52.5609 46.3467C52.1503 45.992 51.8255 45.5464 51.6115 45.0442C51.3975 44.5421 51.3 43.9968 51.3265 43.4504C51.3001 42.9087 51.3978 42.3682 51.6119 41.8713C51.8261 41.3743 52.1509 40.9345 52.5609 40.5864C53.5049 39.8508 54.6716 39.4709 55.8613 39.5117V38.4961H57.5883V39.5332C58.7755 39.4876 59.9404 39.8682 60.8782 40.6079C61.2718 40.9705 61.5864 41.4126 61.8017 41.9058C62.0169 42.3991 62.1281 42.9325 62.1281 43.4719C62.1281 44.0113 62.0169 44.5447 61.8017 45.038C61.5864 45.5312 61.2718 45.9733 60.8782 46.3359C59.9293 47.0502 58.7692 47.4159 57.5883 47.373V48.6949ZM53.1542 43.4504C53.1345 43.7697 53.1873 44.0893 53.3085 44.3846C53.4298 44.6799 53.6162 44.9431 53.8535 45.1538C54.4332 45.5861 55.1429 45.8007 55.8613 45.761V41.1452C55.1409 41.1094 54.4312 41.3341 53.8588 41.7793C53.6249 41.986 53.4401 42.2437 53.3181 42.5331C53.1961 42.8225 53.1401 43.136 53.1542 43.4504ZM60.3007 43.4504C60.3149 43.136 60.2589 42.8225 60.1369 42.5331C60.0149 42.2437 59.83 41.986 59.5962 41.7793C59.0236 41.3303 58.311 41.1052 57.5883 41.1452V45.761C59.3966 45.7502 60.3007 44.98 60.3007 43.4504Z" fill="#1D1D1B"/>
<path d="M65.5936 40.2263H62.415V38.6143H70.5151V40.2263H67.3365V48.582H65.6042L65.5936 40.2263Z" fill="#1D1D1B"/>
<path d="M77.72 48.582H71.8926V38.6143H77.5769V40.2263H73.6196V42.7034H77.1584V44.3155H73.6196V46.8947H77.72V48.582Z" fill="#1D1D1B"/>
<path d="M35.8519 80.8538H34.1885V71.2246H35.8519V75.792L39.5974 71.2246H41.6052L37.7008 75.6899L41.8489 80.8377H39.7298L35.8519 75.8726V80.8538Z" fill="#1D1D1B"/>
<path d="M51.1944 80.8538H49.5362V72.7936H46.7709L46.559 74.6152C46.4744 75.5631 46.3347 76.5051 46.1404 77.4363C46.0089 78.0767 45.8173 78.7028 45.5683 79.3062C45.404 79.7152 45.1525 80.0822 44.8319 80.3809C44.5812 80.6087 44.2763 80.7661 43.9472 80.8377C43.5966 80.8987 43.2383 80.8987 42.8877 80.8377L42.9301 79.1558C43.0899 79.1981 43.2577 79.1981 43.4175 79.1558C43.5959 79.0699 43.7492 78.9384 43.8625 78.7743C44.0768 78.4914 44.2335 78.1681 44.3234 77.8232C44.7398 76.3018 44.9815 74.7367 45.0438 73.159L45.1816 71.2354H51.1944V80.8538Z" fill="#1D1D1B"/>
<path d="M54.4576 80.8548H52.7729L56.7885 71.1826H58.2507L62.2663 80.8548H60.4916L59.5009 78.3777H55.4483L54.4576 80.8548ZM58.8652 76.8086L57.4772 73.3857L56.0946 76.8086H58.8652Z" fill="#1D1D1B"/>
<path d="M70.1395 78.6501L70.7805 79.9182C70.4176 80.2753 69.9791 80.5436 69.4985 80.7027C68.9334 80.9038 68.3385 81.0056 67.7397 81.0036C67.0897 81.0286 66.4414 80.9206 65.8334 80.6861C65.2255 80.4516 64.6703 80.0955 64.2008 79.6388C63.7436 79.165 63.3872 78.601 63.1539 77.9816C62.9206 77.3623 62.8153 76.7009 62.8446 76.0386C62.8013 74.7255 63.2651 73.4473 64.1373 72.476C64.5976 71.9964 65.1542 71.623 65.7694 71.381C66.3846 71.139 67.0439 71.0341 67.7026 71.0735C68.7525 71.0161 69.7846 71.3657 70.5898 72.0515L69.8693 73.2981C69.2417 72.8747 68.504 72.6502 67.7503 72.6533C67.336 72.6389 66.9235 72.7139 66.54 72.8732C66.1564 73.0325 65.8106 73.2726 65.5253 73.5775C65.2273 73.9092 64.9972 74.2974 64.848 74.7199C64.6989 75.1423 64.6338 75.5905 64.6564 76.0386C64.6375 76.4878 64.7079 76.9362 64.8636 77.3572C65.0192 77.7782 65.2569 78.1631 65.5623 78.4889C65.8751 78.8008 66.2475 79.0446 66.6565 79.2054C67.0655 79.3662 67.5026 79.4405 67.941 79.4238C68.7378 79.4181 69.5105 79.1461 70.1395 78.6501Z" fill="#1D1D1B"/>
<path d="M74.8538 72.8044H71.7759V71.2246H79.6005V72.8044H76.5226V80.8646H74.8538V72.8044Z" fill="#1D1D1B"/>
<path d="M86.8211 80.8538H81.2056V71.2246H86.6992V72.8044H82.8743V75.2009H86.2913V76.7646H82.8743V79.2579H86.8211V80.8538Z" fill="#1D1D1B"/>
<path d="M90.6145 77.3727V80.8547H88.9404V71.2255H90.2331H91.6422C92.2328 71.2151 92.8211 71.3003 93.3852 71.478C93.8189 71.6112 94.2125 71.8533 94.5295 72.1819C94.792 72.4626 94.994 72.7957 95.1228 73.1599C95.2538 73.5322 95.3183 73.9253 95.3135 74.3206C95.3203 74.7343 95.2418 75.145 95.0831 75.5262C94.9244 75.9075 94.6889 76.2509 94.3917 76.5344C94.0487 76.8514 93.6464 77.0951 93.2086 77.2511C92.7709 77.4071 92.3066 77.4722 91.8435 77.4425C91.2979 77.4157 90.8847 77.3996 90.6145 77.3727ZM91.8065 72.7784H90.6145V75.7392C91.0966 75.7821 91.4886 75.8036 91.7959 75.8036C92.2561 75.829 92.7103 75.6881 93.0779 75.406C93.2408 75.2643 93.3692 75.0863 93.4528 74.8858C93.5365 74.6854 93.5731 74.468 93.56 74.2507C93.56 73.2692 92.9755 72.7784 91.8065 72.7784Z" fill="#1D1D1B"/>
<path d="M44.0377 64.7441H42.3213V54.8086H47.8414V56.4206H44.0377V64.7441Z" fill="#1D1D1B"/>
<path d="M48.678 64.7441H46.9351L51.0778 54.7764H52.5876L56.7304 64.7441H54.8974L53.875 62.2025H49.6898L48.678 64.7441ZM53.2287 60.5689L51.7983 57.0332L50.3573 60.5689H53.2287Z" fill="#1D1D1B"/>
<path d="M60.6932 64.9013C59.9962 64.9153 59.3066 64.7547 58.6854 64.4338C58.1398 64.1557 57.6744 63.7392 57.3345 63.2248L58.2722 62.048C58.5814 62.4118 58.9574 62.7111 59.3794 62.9292C59.7558 63.1418 60.1777 63.258 60.6084 63.2677C61.0729 63.2873 61.5308 63.1513 61.9117 62.8809C62.0787 62.7582 62.214 62.5964 62.3062 62.4093C62.3985 62.2222 62.4448 62.0153 62.4414 61.8062C62.4487 61.6203 62.4109 61.4355 62.3315 61.2678C62.2521 61.1001 62.1334 60.9547 61.9858 60.8443C61.6064 60.5916 61.157 60.4692 60.7038 60.4951H59.6972V58.883H60.6508C61.0177 58.8915 61.3746 58.7613 61.6521 58.5176C61.7786 58.3975 61.8795 58.2523 61.9485 58.091C62.0174 57.9297 62.053 57.7558 62.053 57.58C62.053 57.4042 62.0174 57.2302 61.9485 57.0689C61.8795 56.9076 61.7786 56.7624 61.6521 56.6423C61.3498 56.4058 60.9737 56.2875 60.5925 56.3092C60.1999 56.3094 59.8134 56.4075 59.4669 56.5949C59.1205 56.7823 58.8248 57.0532 58.6059 57.3838L57.61 56.2232C57.9664 55.7415 58.4339 55.3559 58.9715 55.1001C59.5359 54.8154 60.1581 54.6682 60.7885 54.6703C61.5595 54.6345 62.3157 54.8934 62.9076 55.3957C63.178 55.6495 63.3899 55.9608 63.5282 56.3072C63.6665 56.6537 63.7277 57.0268 63.7076 57.4C63.7024 57.8305 63.5835 58.2517 63.3632 58.6197C63.1437 59.0099 62.8302 59.3371 62.452 59.5708V59.6138C62.9597 59.7231 63.4103 60.0175 63.7182 60.4413C64.0106 60.8938 64.1586 61.4266 64.142 61.9674C64.1553 62.3828 64.0692 62.7952 63.8912 63.1695C63.7131 63.5438 63.4484 63.8688 63.1195 64.1167C62.4255 64.6569 61.5674 64.9343 60.6932 64.9013Z" fill="#1D1D1B"/>
<path d="M65.6625 59.7728C65.6448 59.0911 65.7648 58.4129 66.0151 57.7799C66.2655 57.147 66.641 56.5727 67.1184 56.0925C67.5958 55.6123 68.1651 55.2363 68.7912 54.9876C69.4172 54.7389 70.0869 54.6229 70.7588 54.6466C71.4302 54.6246 72.0991 54.7392 72.726 54.9838C73.3529 55.2284 73.9251 55.5979 74.4089 56.0705C75.3389 57.0682 75.857 58.3891 75.857 59.7621C75.857 61.1351 75.3389 62.456 74.4089 63.4536C73.4094 64.3753 72.107 64.886 70.7562 64.886C69.4053 64.886 68.103 64.3753 67.1035 63.4536C66.6261 62.974 66.2517 62.3994 66.0037 61.766C65.7557 61.1326 65.6396 60.454 65.6625 59.7728ZM67.4796 59.7728C67.465 60.2315 67.5404 60.6886 67.7014 61.1176C67.8623 61.5465 68.1057 61.9387 68.4173 62.2715C68.7161 62.5957 69.0793 62.852 69.4829 63.0233C69.8866 63.1947 70.3214 63.2772 70.7588 63.2656C71.2046 63.2879 71.6498 63.2104 72.0627 63.0386C72.4756 62.8668 72.8462 62.6049 73.1481 62.2715C73.7542 61.5876 74.0751 60.6919 74.0434 59.7728C74.0592 59.3114 73.9834 58.8515 73.8205 58.4205C73.6576 57.9894 73.4109 57.5959 73.0951 57.2634C72.4732 56.6331 71.6301 56.279 70.7509 56.279C69.8717 56.279 69.0286 56.6331 68.4067 57.2634C68.0954 57.5982 67.8531 57.9925 67.6939 58.4234C67.5348 58.8543 67.4619 59.313 67.4796 59.7728Z" fill="#1D1D1B"/>
<path d="M77.8525 64.7275V54.835C78.8591 54.7866 79.8021 54.7651 80.6815 54.7651C81.5377 54.6988 82.3908 54.928 83.1025 55.4153C83.3658 55.6318 83.5753 55.9079 83.7142 56.2215C83.8531 56.5351 83.9176 56.8773 83.9024 57.2208C83.9289 57.6983 83.8078 58.1723 83.5562 58.5768C83.3046 58.9813 82.9349 59.2962 82.4986 59.4776C82.9944 59.5962 83.4377 59.8777 83.7594 60.2783C84.08 60.7147 84.2428 61.2498 84.2203 61.7936C84.2453 62.2154 84.1692 62.6372 83.9986 63.0227C83.8279 63.4082 83.5677 63.7461 83.2402 64.0074C82.4663 64.5556 81.5341 64.8261 80.5914 64.7758C79.463 64.8027 78.5518 64.7758 77.8525 64.7275ZM80.655 56.3933C80.2418 56.3933 79.8815 56.3933 79.5955 56.4362V58.951H80.7556C81.1375 58.9711 81.5136 58.8509 81.8152 58.6125C81.9502 58.4896 82.0561 58.3373 82.125 58.167C82.1938 57.9967 82.2237 57.8128 82.2125 57.6292C82.2235 57.4552 82.1925 57.2811 82.1224 57.122C82.0522 56.9628 81.945 56.8234 81.8099 56.7157C81.4721 56.4785 81.0649 56.3648 80.655 56.3933ZM80.7927 60.4717H79.5743V63.0993C80.014 63.1423 80.3901 63.1692 80.708 63.1692C81.9052 63.1692 82.4986 62.6909 82.4986 61.7345C82.5101 61.5514 82.4753 61.3684 82.3974 61.2029C82.3195 61.0373 82.2011 60.8947 82.0536 60.7887C81.6742 60.557 81.2349 60.4465 80.7927 60.4717Z" fill="#1D1D1B"/>
<path d="M86.4873 54.8086H88.209V58.2154C88.5711 58.1689 88.9355 58.1438 89.3004 58.1401C90.2568 58.078 91.2016 58.3808 91.9492 58.9891C92.2615 59.2925 92.5052 59.661 92.6635 60.0692C92.8217 60.4774 92.8907 60.9156 92.8657 61.3534C92.8868 61.8249 92.8024 62.295 92.6189 62.7287C92.4354 63.1623 92.1576 63.5482 91.8061 63.8575C90.9801 64.5097 89.948 64.8344 88.903 64.7709C88.3733 64.7709 87.9283 64.7709 87.5468 64.7709H86.4873V54.8086ZM89.1361 59.7736C88.9878 59.7736 88.6699 59.8005 88.1826 59.8489V63.0729C88.2567 63.0729 88.4104 63.0729 88.6329 63.0729H89.1096C90.397 63.0729 91.038 62.4872 91.038 61.3266C91.0527 61.1007 91.0165 60.8744 90.932 60.6649C90.8476 60.4554 90.7171 60.2682 90.5506 60.1175C90.1394 59.8474 89.6503 59.7262 89.1626 59.7736H89.1361ZM95.8429 64.7441H94.1318V54.8086H95.8429V64.7441Z" fill="#1D1D1B"/>
<path d="M105.231 57.6888L100.092 64.7441H98.5825V54.8087H100.304V61.8747L105.443 54.8087H106.953V64.7441H105.231V57.6888ZM100.135 52.3906H101.724C101.835 52.928 102.254 53.2181 102.916 53.2181C103.578 53.2181 103.976 52.9441 104.034 52.3906H105.623C105.619 52.6845 105.544 52.9727 105.404 53.2303C105.265 53.4879 105.065 53.7069 104.823 53.8683C104.251 54.247 103.577 54.4349 102.895 54.4057C102.195 54.4412 101.502 54.2532 100.913 53.8683C100.683 53.6967 100.493 53.4749 100.359 53.2192C100.224 52.9634 100.147 52.6803 100.135 52.3906Z" fill="#1D1D1B"/>
<defs>
<linearGradient id="paint0_linear" x1="21.4797" y1="78.8222" x2="26.8662" y2="72.4709" gradientUnits="userSpaceOnUse">
<stop offset="0.01" stop-color="#3468B0"/>
<stop offset="1" stop-color="#3468B0" stop-opacity="0.1"/>
</linearGradient>
<linearGradient id="paint1_linear" x1="28.0124" y1="0.999355" x2="29.4566" y2="33.3833" gradientUnits="userSpaceOnUse">
<stop offset="0.03" stop-color="#4163AB"/>
<stop offset="1" stop-color="#3468B0" stop-opacity="0.1"/>
</linearGradient>
<linearGradient id="paint2_linear" x1="1.20606" y1="54.2075" x2="17.0611" y2="61.7528" gradientUnits="userSpaceOnUse">
<stop stop-color="#3468B0"/>
<stop offset="1" stop-color="#3468B0" stop-opacity="0.1"/>
</linearGradient>
<linearGradient id="paint3_linear" x1="7.81745" y1="69.3438" x2="20.3098" y2="68.8633" gradientUnits="userSpaceOnUse">
<stop stop-color="#3468B0"/>
<stop offset="1" stop-color="#3468B0" stop-opacity="0.1"/>
</linearGradient>
<linearGradient id="paint4_linear" x1="17.0888" y1="12.6644" x2="25.4029" y2="40.2893" gradientUnits="userSpaceOnUse">
<stop stop-color="#3468B0"/>
<stop offset="1" stop-color="#3468B0" stop-opacity="0.1"/>
</linearGradient>
<linearGradient id="paint5_linear" x1="10.1222" y1="25.6419" x2="21.8369" y2="47.3792" gradientUnits="userSpaceOnUse">
<stop stop-color="#3468B0"/>
<stop offset="0.99" stop-color="#3468B0" stop-opacity="0.1"/>
</linearGradient>
<linearGradient id="paint6_linear" x1="71.2618" y1="1175.68" x2="523.693" y2="1630.37" gradientUnits="userSpaceOnUse">
<stop stop-color="#3468B0"/>
<stop offset="1" stop-color="#3468B0" stop-opacity="0.1"/>
</linearGradient>
</defs>
</svg>
