<svg width="1602" height="624" viewBox="0 0 1602 624" fill="none" xmlns="http://www.w3.org/2000/svg">
<path d="M1347.27 302.48H1347.03L1251.94 376.446L1062.18 413.36H1061.91L966.855 487.291L777.1 524.187H776.829L681.529 598.205L553.851 623.017H557.676L682.554 598.675H682.794L777.883 524.761L967.638 487.847H967.88L1063.09 413.899L1252.84 376.985H1253.12L1348.32 303.019L1538.08 266.106H1538.35L1600.91 217.421V215.926L1537.18 265.567L1347.27 302.48ZM1323.51 293.23H1323.26L1228.18 367.144L1038.42 404.057H1038.15L943.091 477.971L753.185 514.885H752.944L657.885 588.799L482.678 622.861H486.503L658.879 589.338H659.15L754.209 515.406L943.964 478.51H944.205L1039.29 404.579L1229.05 367.683H1229.29L1324.38 293.769L1514.13 256.856H1514.41L1600.73 189.74V188.21L1513.38 256.369L1323.51 293.23ZM1418.32 108.576L1323.26 182.403L1133.36 219.316H1133.12L1038.09 293.282L848.334 330.196H848.062L752.823 404.162L563.068 441.075H562.827L467.618 515.041L277.712 551.955H277.471L186.117 623.017H188.045L278.736 552.494L468.642 515.58H468.883L563.941 441.667L753.697 404.753H753.938L849.026 330.839L1038.78 293.926H1039.05L1134.47 219.855L1324.23 182.959H1324.47L1419.53 109.028L1601 73.801V72.9838L1418.59 108.437L1418.32 108.576ZM1442.09 117.809L1347.03 191.653L1157.12 228.549H1156.88L1061.79 302.463L872.038 339.376H871.767L776.708 413.29L586.953 450.204H586.682L491.623 524.118L301.476 561.188H301.235L221.839 623.017H223.767L302.561 561.727L492.467 524.83H492.708L587.766 450.899L777.672 414.003H777.913L873.002 340.089L1062.76 303.176H1063.03L1158.09 229.262L1347.99 192.348H1348.23L1443.32 118.434L1600.94 87.7978V86.8415L1442.36 117.669L1442.09 117.809ZM1560.94 385.766L1465.79 459.593L1276.04 496.506H1275.77L1180.71 570.42L990.951 607.334H990.68L970.65 622.982H972.578L991.945 607.89L1181.67 571.081H1181.91L1277 497.167L1466.76 460.254H1467.03L1562.18 386.183L1600.97 378.637V377.889L1561.15 385.627L1560.94 385.766ZM1584.71 395.016L1489.62 468.843L1299.86 505.757H1299.62L1204.41 579.775L1014.66 616.671H1014.38L1006.25 623.017H1007.97L1015.5 617.175L1205.25 580.262H1205.5L1300.58 506.348L1490.34 469.434H1490.61L1585.97 395.468L1601.03 392.547V391.799L1584.98 394.929L1584.71 395.016ZM1394.8 321.033H1394.56L1299.5 394.964L1109.59 431.86H1109.35L1014.26 505.774L824.509 542.687H824.238L729.059 616.671L696.469 623.017H700.294L730.083 617.227H730.324L825.412 543.261L1015.17 506.348H1015.44L1110.5 432.434L1300.25 395.52H1300.52L1395.58 321.606L1585.49 284.693H1585.73L1600.79 273.009V271.531L1584.49 284.206L1394.8 321.033ZM1371.03 311.8H1370.79L1275.71 385.714L1085.95 422.627H1085.71L990.5 496.559L800.744 533.472H800.473L705.415 607.386L625.266 623.035H629.121L706.439 607.994H706.68L801.768 534.081L991.524 497.167H991.765L1086.85 423.236L1276.61 386.34H1276.88L1371.94 312.408L1561.84 275.512H1562.09L1600.88 245.345V243.867L1560.82 275.008L1371.03 311.8ZM1537.18 154.687L1442.09 228.549L1252.33 265.462H1252.06L1156.88 339.481L966.976 376.342H966.735L871.646 450.256L681.891 487.169H681.65L586.561 561.083L396.806 597.997H396.535L364.638 622.809H366.415L397.71 598.466L587.465 561.553H587.706L682.674 487.813L872.43 450.899H872.701L967.759 376.985L1157.51 340.072H1157.76L1252.84 266.141L1442.6 229.244H1442.87L1538.44 155.174L1601 143.003V142.255L1537.42 154.618L1537.18 154.687ZM1584.71 173.17L1489.62 247.084L1299.86 283.997H1299.62L1204.53 357.911L1014.78 394.825H1014.51L919.206 468.843L729.45 505.757H729.209L633.97 579.775L444.215 616.671H443.974L435.691 623.017H437.618L445.118 617.175L634.874 580.262H635.145L730.203 506.348L920.109 469.434H920.35L1015.56 395.468L1205.31 358.555H1205.56L1300.64 284.641L1490.4 247.727H1490.67L1585.97 173.657L1601.03 170.736V170.006L1584.98 173.118L1584.71 173.17ZM1560.94 163.92L1465.79 237.851L1276.04 274.747H1275.77L1180.71 348.661L990.951 385.575H990.68L895.622 459.489L705.866 496.402H705.625L610.537 570.316L420.781 607.229H420.51L400.481 622.878H402.408L421.805 607.786L611.561 570.89H611.832L706.89 496.976L896.646 460.062H896.917L991.975 386.148L1181.88 349.235H1182.12L1277.21 275.321L1466.97 238.408H1467.24L1562.18 164.424L1600.97 156.878V156.13L1561.15 163.885L1560.94 163.92ZM1465.79 126.972L1370.79 200.886L1181.04 237.799H1180.8L1085.71 311.713L895.953 348.626H895.712L800.624 422.558L610.868 459.471H610.597L515.147 533.524L325.392 570.42H325.151L257.441 623.017H259.339L326.265 570.977L516.171 534.063H516.412L611.501 460.149L801.256 423.236H801.527L896.586 349.322L1086.34 312.408H1086.61L1181.67 238.495L1371.82 201.425H1372.06L1467.15 127.511L1601 101.43V100.682L1466.12 126.92L1465.79 126.972ZM1394.74 99.1518H1394.5L1299.5 173.17L1109.59 210.084H1109.35L1014.26 284.015L824.509 320.911H824.238L729.059 394.929L539.153 431.825H538.912L443.853 505.739L253.947 542.705H253.706L158.588 616.671L125.998 623.017H129.823L159.612 617.227H159.883L254.971 543.261L444.727 506.348H444.998L540.056 432.434L730.083 395.468H730.324L825.412 321.554L1015.17 284.641H1015.44L1110.5 210.727L1300.25 173.813H1300.52L1395.58 99.8995L1585.73 62.8295H1585.97L1601.03 51.1626V49.6672L1584.71 62.2905L1394.74 99.1518ZM1489.56 136.152L1394.56 210.118L1204.8 247.032H1204.53L1109.47 320.946L919.447 357.911H919.206L824.238 431.877L634.482 468.791H634.211L539.153 542.705L349.397 579.618H349.126L293.434 622.913H295.362L350.391 580.105L539.936 543.261H540.177L635.265 469.33L825.021 432.434H825.292L920.621 358.45L1110.38 321.554H1110.62L1205.68 247.675L1395.58 210.762H1395.82L1490.91 136.848L1601 115.444V114.696L1489.89 136.152H1489.56ZM1537.18 376.446L1442.09 450.36L1252.33 487.274H1252.06L1157 561.188L967.096 598.101H966.855L934.928 622.913H936.856L968.12 598.571L1157.88 561.657H1158.12L1253.21 487.743L1442.96 450.83H1443.23L1538.29 376.916L1600.85 364.745V363.997L1537.42 376.342L1537.18 376.446ZM1560.94 53.0404L1371.19 89.9539H1370.94L1275.71 163.92L1085.95 200.833H1085.71L990.5 274.799L800.744 311.713H800.473L705.415 385.627L515.659 422.54H515.418L420.33 496.454L230.574 533.368H230.303L134.853 607.438L54.7341 623.087H58.5593L135.877 608.047H136.118L231.207 534.133L420.962 497.219H421.233L516.292 423.288L706.047 386.392H706.288L801.377 312.461L991.132 275.565H991.373L1086.46 201.633L1276.22 164.737H1276.49L1371.55 90.8232L1561.96 53.5968H1562.21L1601 23.3775V21.8995L1560.94 53.0404ZM1513.38 145.454L1418.32 219.368L1228.45 256.369H1228.18L1133.12 330.3L943.211 367.144H942.97L847.882 441.075L658.126 477.971H657.885L562.676 551.955L372.921 588.868H372.65L328.735 623.017H330.663L373.824 589.46L563.58 552.546H563.821L658.909 478.632L848.665 441.719H848.936L944.235 367.648L1134.14 330.735H1134.38L1229.44 256.821L1419.35 219.855H1419.59L1514.68 145.941L1601 129.162V128.415L1513.65 145.402L1513.38 145.454ZM1465.79 570.472L1398.23 623.017H1400.16L1467.09 570.977L1600.94 544.896V544.165L1466.06 570.368L1465.79 570.472ZM1489.56 579.723L1433.89 623.017H1435.79L1490.85 580.209L1600.94 558.806V558.075L1489.89 579.67L1489.56 579.723ZM1418.26 551.903L1326.94 622.93H1328.84L1419.53 552.407L1601 517.18V516.432L1418.59 551.955L1418.26 551.903ZM1513.32 588.868L1469.53 622.93H1471.45L1514.62 589.372L1600.94 572.594V571.846L1513.59 588.816L1513.32 588.868ZM1394.74 542.618H1394.5L1299.44 616.532L1267 623.017H1270.83L1300.58 617.227H1300.86L1395.82 543.261L1585.73 506.348H1585.97L1601.03 494.663V493.185L1584.74 505.843L1394.74 542.618ZM1584.65 616.584L1576.48 622.93H1578.41L1585.91 617.088L1600.97 614.167V613.419L1584.92 616.532L1584.65 616.584ZM1560.88 607.351L1540.85 623H1542.75L1562.15 607.908L1600.94 600.379V599.631L1561.12 607.369L1560.88 607.351ZM1513.38 367.196L1418.32 441.127L1228.57 478.024H1228.3L1133.12 551.955L943.211 588.903H942.97L899.176 622.965H901.074L944.235 589.407L1134.14 552.494H1134.38L1229.44 478.58L1419.35 441.667H1419.59L1514.68 367.648L1601 350.869V350.261L1513.65 367.231L1513.38 367.196ZM1537.18 598.205L1505.25 623.017H1507.18L1538.44 598.675L1601 586.504V585.756L1537.42 598.118L1537.18 598.205ZM1371.03 533.472H1370.79L1275.71 607.386L1195.59 623.035H1199.41L1276.73 607.994H1277L1372.06 534.081L1561.96 497.167H1562.21L1601 467V465.505L1560.94 496.663L1371.03 533.472ZM1442.09 339.481L1347.03 413.395L1157.12 450.308H1156.88L1061.79 524.222L872.038 561.135H871.767L792.341 622.913H794.118L872.942 561.622L1062.7 524.726H1062.97L1158.03 450.795L1347.93 413.899H1348.17L1443.26 339.985L1600.88 309.348V308.531L1442.24 339.359L1442.09 339.481ZM1489.62 357.963L1394.56 431.877L1204.8 468.791H1204.53L1109.47 542.705L919.567 579.618H919.326L863.393 623.017H865.321L920.621 580.209L1110.38 543.261H1110.62L1205.68 469.33L1395.58 432.434H1395.82L1490.91 358.503L1601 337.116V336.351L1489.89 357.911L1489.62 357.963ZM1465.79 348.713L1370.73 422.645L1180.98 459.558H1180.74L1085.59 533.524L895.833 570.42H895.592L827.852 623.017H829.78L896.706 570.977L1086.46 534.063H1086.73L1181.79 460.149L1371.7 423.236H1371.94L1467.03 349.322L1600.88 323.241V322.441L1466 348.661L1465.79 348.713ZM1418.26 330.248L1323.26 404.162L1133.36 441.075H1133.12L1038.09 515.041L848.334 551.955H848.062L756.739 622.982H758.667L849.358 552.459L1039.11 515.546H1039.38L1134.47 441.614L1324.23 404.701H1324.47L1419.53 330.787L1600.94 295.525V294.795L1418.53 330.248H1418.26ZM1347.27 524.222H1347.03L1251.94 598.205L1124.29 623.017H1128.12L1252.96 598.675H1253.24L1348.32 524.778L1538.08 487.865H1538.35L1600.91 439.18V437.685L1537.18 487.326L1347.27 524.222ZM1323.51 514.989H1323.26L1228.18 588.903L1053.15 623.017H1056.97L1229.35 589.494H1229.59L1324.68 515.563L1514.44 478.667H1514.71L1601.03 411.551V410.056L1513.38 478.076L1323.51 514.989ZM1442.09 561.24L1362.63 623.017H1364.56L1443.38 561.727L1601 531.09V530.342L1442.36 561.188L1442.09 561.24ZM112.353 266.054L302.26 229.157H302.5L397.589 155.174L587.345 118.278H587.585L682.674 44.2424L872.43 7.32888H872.701L880.863 0.982472H878.935L871.405 6.82464L681.65 43.7381H681.409L586.441 117.722L396.535 154.635H396.264L301.235 228.549L111.48 265.462H111.239L16.03 339.481L0.970062 342.402V343.149L17.2649 339.985L112.353 266.054ZM64.8243 358.45L159.913 284.536L349.668 247.623H349.909L444.998 173.692L634.753 136.796H635.024L730.324 62.7773L920.23 25.8813H920.471L952.398 1.05202H950.47L919.206 25.3944L729.3 62.2383H729.059L633.97 136.204L444.215 173.118H443.974L348.885 247.032L159.13 283.945H158.859L63.5592 357.963L1.00018 370.135V370.882L64.5833 358.52L64.8243 358.45ZM230.875 423.184H231.146L326.265 349.218L516.171 312.304H516.412L611.501 238.39L801.256 201.477H801.527L896.586 127.563L1086.34 90.6494H1086.61L1181.67 16.7181L1261.82 1.06941H1257.99L1180.65 16.1095H1180.41L1085.59 90.006L895.833 126.92H895.592L800.353 200.886L610.597 237.799H610.326L515.268 311.713L325.512 348.626H325.271L229.912 422.645L40.1561 459.558H39.9151L1.12066 489.725V491.221L41.1199 460.097L230.875 423.184ZM207.111 413.951H207.382L302.44 340.037L492.346 303.124H492.587L587.646 229.21L777.552 192.296H777.793L872.881 118.382L1062.64 81.4688H1062.91L1157.97 7.55492L1190.59 1.20851H1186.76L1156.94 7.01591H1156.7L1061.79 80.7559L872.038 117.652H871.767L776.588 191.653L586.712 228.549H586.441L491.382 302.463L301.476 339.428H301.235L206.147 413.395L16.3915 450.308H16.1505L1.09054 461.992V463.47L17.3854 450.795L207.111 413.951ZM49.9149 0.999864H46.0596L16.271 6.80726H16.03L0.970062 18.4916V19.9869L17.2649 7.31149L49.9149 0.999864ZM136.118 386.183L231.207 312.252L420.962 275.356H421.233L516.412 201.372L706.168 164.476H706.409L801.648 90.5103L991.403 53.5968H991.644L1059.23 1.05202H1057.31L990.5 53.0404L800.744 89.9539H800.473L705.294 163.92L515.539 200.833H515.298L420.059 274.799L230.303 311.713H230.032L134.853 385.679L1.00018 411.76V412.49L135.877 386.288L136.118 386.183ZM112.353 376.933L207.442 303.019L397.198 266.106H397.469L492.527 192.192L682.674 155.226H682.915L777.853 81.2602L967.608 44.3467H967.849L1023.54 1.03464H1021.64L966.735 43.8077L776.859 80.7559H776.588L681.529 154.687L491.623 191.601H491.382L396.294 265.515L206.538 302.428H206.267L111.088 376.446L1.00018 397.833V398.58L112.113 376.985L112.353 376.933ZM88.5889 367.648L183.677 293.734L373.433 256.821H373.704L468.823 182.907L658.578 145.994H658.849L754.088 72.0622L943.844 35.1487H944.085L987.909 1.0868H985.982L942.97 34.575L753.064 71.471H752.823L657.765 145.454L468.009 182.351H467.768L372.439 256.369L182.684 293.23H182.412L87.3239 367.196L1.00018 383.975V384.723L88.3479 367.753L88.5889 367.648ZM64.8243 580.209L159.913 506.296L349.668 469.382H349.909L445.118 395.468L634.874 358.555H635.145L730.203 284.641L920.23 247.675H920.471L1015.56 173.744L1205.31 136.848H1205.56L1300.76 62.7773L1490.52 25.8813H1490.79L1522.69 1.05202H1520.79L1489.5 25.3944L1299.74 62.2383H1299.5L1204.41 136.204L1014.66 173.118H1014.38L919.326 247.032L729.571 283.945H729.33L634.241 357.859L444.486 394.773H444.245L348.765 468.843L159.009 505.757H158.738L63.5592 579.775L1.00018 591.946V592.694L64.5833 580.331L64.8243 580.209ZM41.1199 570.977L136.178 497.063L326.024 460.149H326.265L421.354 386.235L611.109 349.322H611.38L706.439 275.408L896.194 238.495H896.465L991.524 164.581L1181.43 127.667H1181.67L1277 53.5446L1466.76 16.6311H1467.03L1487.06 0.982472H1485.13L1465.79 16.0921L1276.04 52.9361H1275.77L1180.65 126.972L990.891 163.885H990.62L895.562 237.816L705.806 274.713H705.565L610.477 348.626L420.721 385.54H420.45L325 459.593L135.245 496.506H134.974L39.7946 570.472L1.00018 578.036V578.784L40.8187 571.081L41.1199 570.977ZM112.414 487.813L302.26 450.899H302.5L397.589 376.985L587.345 340.072H587.585L682.674 266.054L872.43 229.157H872.701L968 155.174L1157.76 118.278H1158L1253.24 44.2424L1442.99 7.32888H1443.26L1451.39 0.982472H1449.5L1441.97 6.82464L1252.21 43.7381H1251.94L1156.88 117.722L966.976 154.635H966.735L871.646 228.549L681.891 265.462H681.65L586.441 339.481L396.535 376.342H396.264L301.235 450.36L111.48 487.274H111.239L15.9999 561.24L0.939941 564.161V564.909L17.2348 561.727L112.414 487.813ZM254.76 432.434H255.032L350.09 358.503L539.996 321.606H540.237L635.265 247.675L825.021 210.762H825.292L920.621 136.709L1110.38 99.8821H1110.62L1205.68 25.9682L1333.26 0.999864H1329.44L1204.59 25.3422H1204.32L1109.35 99.2387L919.447 136.152H919.206L824.238 210.118L634.482 247.032H634.211L539.153 320.946L349.397 357.859H349.126L253.706 431.877L63.9508 468.791H63.7098L1.15078 517.476V518.919L64.8243 469.33L254.76 432.434ZM112.353 598.692L207.442 524.778L397.198 487.865H397.469L492.527 413.951L682.674 376.985H682.915L778.004 303.071L967.759 266.158H968L1063.09 192.14L1252.84 155.226H1253.12L1348.32 81.2602L1538.08 44.3467H1538.35L1594.04 1.03464H1592.3L1537.18 43.8077L1347.27 80.7559H1347.03L1251.94 154.687L1062.18 191.601H1061.91L966.855 265.515L777.1 302.428H776.829L681.77 376.359L491.864 413.273H491.623L396.535 487.204L206.779 524.1H206.508L111.088 598.205L1.00018 619.592V620.339L112.113 598.744L112.353 598.692ZM278.495 441.667H278.736L373.824 367.648L563.58 330.735H563.821L658.909 256.821L848.665 219.907H848.936L943.994 145.994L1133.9 109.08H1134.14L1229.23 35.1661L1404.44 1.10418H1400.61L1228.45 34.5228H1228.18L1133.12 108.576L943.211 145.402H942.97L847.882 219.368L658.126 256.282H657.885L562.797 330.213L373.041 367.109H372.77L277.471 441.127L87.7154 478.024H87.4744L1.15078 545.139V546.739L88.5889 478.58L278.495 441.667ZM159.913 395.468L254.971 321.502L444.727 284.589H444.998L540.056 210.675L729.962 173.761H730.203L825.292 99.8473L1015.05 62.9338H1015.32L1095.02 0.999864H1093.09L1014.26 62.2905L824.509 99.204H824.238L729.059 173.17L539.153 210.084H538.912L443.853 284.015L253.947 320.946H253.706L158.588 394.929L0.970062 425.566V426.313L159.642 395.468H159.913ZM88.5889 589.46L183.677 515.528L373.433 478.632H373.704L468.823 404.649L658.578 367.753H658.849L753.908 293.839L943.663 256.925H943.904L1038.99 183.011L1228.75 146.098H1228.99L1324.53 72.0622L1514.28 35.1487H1514.56L1558.35 1.0868H1556.45L1513.38 34.575L1323.63 71.471H1323.38L1228.18 145.437L1038.42 182.351H1038.15L942.97 256.369L753.064 293.23H752.823L657.765 367.144L468.009 404.057H467.768L372.439 478.076L182.684 514.989H182.412L87.3239 588.955L1.00018 605.734V606.482L88.3479 589.494L88.5889 589.46ZM41.1199 349.218L136.178 275.304L326.084 238.39H326.325L421.414 164.476L611.169 127.563H611.44L706.559 53.5446L896.315 16.6311H896.586L916.615 0.982472H914.718L895.321 16.0747L705.535 52.9361H705.294L610.206 126.972L420.45 163.885H420.179L325 237.851L135.245 274.747H134.974L39.7946 348.713L1.00018 356.259V357.007L40.8187 349.27L41.1199 349.218ZM88.5889 145.941L183.677 72.0622L373.433 35.1487H373.704L417.619 0.999864H415.691L372.439 34.575L182.684 71.471H182.412L87.3239 145.454L1.00018 162.233V162.964L88.3479 145.994L88.5889 145.941ZM136.118 164.424L231.207 90.5103L420.962 53.5968H421.233L488.792 1.05202H486.895L420.059 53.0404L230.303 89.9539H230.032L134.853 163.92L1.00018 190.001V190.749L135.877 164.476L136.118 164.424ZM159.913 173.657L254.971 99.743L444.727 62.8295H444.998L524.454 1.05202H522.526L443.853 62.2905L253.947 99.204H253.706L158.588 173.17L1.00018 203.807V204.554L159.642 173.709L159.913 173.657ZM112.353 155.174L207.442 81.2602L397.198 44.3467H397.469L453.16 1.03464H451.233L396.294 43.8077L206.418 80.7559H206.147L111.088 154.687L1.00018 176.091V176.839L112.113 155.226L112.353 155.174ZM183.677 182.994L278.736 108.976L468.642 72.0622H468.823L560.176 1.03464H558.249L467.618 71.5232L277.862 108.437H277.621L182.382 182.403L1.00018 217.664V218.412L183.406 182.959L183.677 182.994ZM121.209 0.999864H117.384L40.0356 16.04H39.7946L1.00018 46.2419V47.7198L41.1199 16.579L121.209 0.999864ZM263.827 0.999864H259.971L87.5648 34.5228H87.3239L1.00018 101.621V103.116L88.5889 35.0618L263.827 0.999864ZM192.503 0.999864H188.707L63.8303 25.3422H63.5894L1.0303 74.027V75.5397L64.8243 25.8291L192.503 0.999864ZM207.171 192.261H207.442L302.5 118.226L492.407 81.3123H492.648L587.706 7.39843L620.326 1.05202H616.41L586.622 6.85942H586.351L491.382 80.7559L301.476 117.669H301.235L206.147 191.653L16.271 228.549H16.03L0.970062 240.233V241.729L17.2649 229.053L207.171 192.261ZM64.8243 136.709L159.913 62.7773L349.668 25.8813H349.909L381.836 1.05202H379.939L348.644 25.3944L158.889 62.2383L158.588 62.2905L63.5592 136.204L1.00018 148.376V149.123L64.5833 136.778L64.8243 136.709ZM278.495 219.855H278.736L373.824 145.941L563.58 109.028H563.821L658.909 35.114L834.117 1.05202H830.292L658.006 34.5228H657.765L562.676 108.576L372.921 145.489H372.65L277.471 219.368L87.5648 256.369H87.3239L1.00018 323.502V324.98L88.5889 256.873L278.495 219.855ZM230.875 201.425H231.146L326.265 127.459L516.171 90.545H516.412L611.501 16.6138L691.62 0.965088H687.794L610.386 16.04H610.115L515.147 90.006L325.392 126.92H325.151L229.912 200.886L40.1561 237.799H39.9151L1.12066 267.949V269.444L41.1199 238.338L230.875 201.425ZM254.64 210.675H254.911L350 136.761L539.755 99.8473H539.996L635.085 25.9334L762.763 1.10418H758.938L634.06 25.4466H633.789L538.912 99.2387L349.156 136.152H348.885L253.706 210.118L63.9508 247.032H63.7098L1.15078 295.717V297.212L64.8243 247.675L254.64 210.675ZM41.1199 127.459L136.118 53.5446L326.024 16.6311H326.265L346.295 0.982472H344.397L325 16.0747L135.124 52.9361H134.853L39.7946 126.972L1.00018 134.5V135.248L40.8187 127.511L41.1199 127.459ZM112.353 44.2424L302.26 7.39843H302.5L310.663 1.05202H308.735L301.235 6.8942L111.48 43.8077H111.239L16.03 117.722L0.970062 120.643V121.39L17.2649 118.226L112.353 44.2424ZM183.677 404.649L278.736 330.735L468.642 293.821H468.883L563.941 219.855L753.697 182.959H753.938L849.026 109.028L1039.05 72.0622H1039.32L1130.65 1.03464H1128.75L1038.09 71.5232L848.334 108.437H848.062L752.823 182.403L563.068 219.316H562.827L467.618 293.282L277.862 330.196H277.621L182.382 404.162L1.00018 439.423V440.171L183.406 404.701L183.677 404.649Z" fill="#F1F1F1"/>
</svg>
