<svg width="1602" height="624" fill="none" xmlns="http://www.w3.org/2000/svg"><path d="M1347.27 302.48h-.24l-95.09 73.966-189.76 36.914h-.27l-95.055 73.931L777.1 524.187h-.271l-95.3 74.018-127.678 24.812h3.825l124.878-24.342h.24l95.089-73.914 189.755-36.914h.242l95.21-73.948 189.75-36.914h.28l95.2-73.966 189.76-36.913h.27l62.56-48.685v-1.495l-63.73 49.641-189.91 36.913Zm-23.76-9.25h-.25l-95.08 73.914-189.76 36.913h-.27l-95.059 73.914-189.906 36.914h-.241l-95.059 73.914-175.207 34.062h3.825l172.376-33.523h.271l95.059-73.932 189.755-36.896h.241l95.085-73.931 189.76-36.896h.24l95.09-73.914 189.75-36.913h.28l86.32-67.116v-1.53l-87.35 68.159-189.87 36.861Zm94.81-184.654-95.06 73.827-189.9 36.913h-.24l-95.03 73.966-189.756 36.914h-.272l-95.239 73.966-189.755 36.913h-.241l-95.209 73.966-189.906 36.914h-.241l-91.354 71.062h1.928l90.691-70.523 189.906-36.914h.241l95.058-73.913 189.756-36.914h.241l95.088-73.914 189.754-36.913h.27l95.42-74.071 189.76-36.896h.24l95.06-73.931L1601 73.801v-.817l-182.41 35.453-.27.139Zm23.77 9.233-95.06 73.844-189.91 36.896h-.24l-95.09 73.914-189.752 36.913h-.271l-95.059 73.914-189.755 36.914h-.271l-95.059 73.914-190.147 37.07h-.241l-79.396 61.829h1.928l78.794-61.29 189.906-36.897h.241l95.058-73.931 189.906-36.896h.241l95.089-73.914 189.758-36.913h.27l95.06-73.914 189.9-36.914h.24l95.09-73.914 157.62-30.636v-.957l-158.58 30.828-.27.14Zm118.85 267.957-95.15 73.827-189.75 36.913h-.27l-95.06 73.914-189.759 36.914h-.271l-20.03 15.648h1.928l19.367-15.092 189.725-36.809h.24l95.09-73.914 189.76-36.913h.27l95.15-74.071 38.79-7.546v-.748l-39.82 7.738-.21.139Zm23.77 9.25-95.09 73.827-189.76 36.914h-.24l-95.21 74.018-189.75 36.896h-.28l-8.13 6.346h1.72l7.53-5.842 189.75-36.913h.25l95.08-73.914 189.76-36.914h.27l95.36-73.966 15.06-2.921v-.748l-16.05 3.13-.27.087Zm-189.91-73.983h-.24l-95.06 73.931-189.91 36.896h-.24l-95.09 73.914-189.751 36.913h-.271l-95.179 73.984-32.59 6.346h3.825l29.789-5.79h.241l95.088-73.966 189.758-36.913h.27l95.06-73.914 189.75-36.914h.27l95.06-73.914 189.91-36.913h.24l15.06-11.684v-1.478l-16.3 12.675-189.69 36.827Zm-23.77-9.233h-.24l-95.08 73.914-189.76 36.913h-.24l-95.21 73.932-189.756 36.913h-.271l-95.058 73.914-80.149 15.649h3.855l77.318-15.041h.241l95.088-73.913 189.756-36.914h.241l95.085-73.931 189.76-36.896h.27l95.06-73.932 189.9-36.896h.25l38.79-30.167v-1.478l-40.06 31.141-189.79 36.792Zm166.15-157.113-95.09 73.862-189.76 36.913h-.27l-95.18 74.019-189.904 36.861h-.241l-95.089 73.914-189.755 36.913h-.241l-95.089 73.914-189.755 36.914h-.271l-31.897 24.812h1.777l31.295-24.343 189.755-36.913h.241l94.968-73.74 189.756-36.914h.271l95.058-73.914 189.751-36.913h.25l95.08-73.931 189.76-36.897h.27l95.57-74.07 62.56-12.171v-.748l-63.58 12.363-.24.069Zm47.53 18.483-95.09 73.914-189.76 36.913h-.24l-95.09 73.914-189.75 36.914h-.27l-95.304 74.018-189.756 36.914h-.241l-95.239 74.018-189.755 36.896h-.241l-8.283 6.346h1.927l7.5-5.842 189.756-36.913h.271l95.058-73.914 189.906-36.914h.241l95.21-73.966 189.75-36.913h.25l95.08-73.914 189.76-36.914h.27l95.3-74.07 15.06-2.921v-.73l-16.05 3.112-.27.052Zm-23.77-9.25-95.15 73.931-189.75 36.896h-.27l-95.06 73.914-189.759 36.914h-.271l-95.058 73.914-189.756 36.913h-.241l-95.088 73.914-189.756 36.913h-.271l-20.029 15.649h1.927l19.397-15.092 189.756-36.896h.271l95.058-73.914 189.756-36.914h.271l95.058-73.914 189.905-36.913h.24l95.09-73.914 189.76-36.913h.27l94.94-73.984 38.79-7.546v-.748l-39.82 7.755-.21.035Zm-95.15-36.948-95 73.914-189.75 36.913h-.24l-95.09 73.914-189.757 36.913h-.241l-95.088 73.932-189.756 36.913h-.271l-95.45 74.053-189.755 36.896h-.241l-67.71 52.597h1.898l66.926-52.04 189.906-36.914h.241l95.089-73.914 189.755-36.913h.271l95.059-73.914 189.754-36.914h.27l95.06-73.913 190.15-37.07h.24l95.09-73.914L1601 101.43v-.748l-134.88 26.238-.33.052Zm-71.05-27.82h-.24l-95 74.018-189.91 36.914h-.24l-95.09 73.931-189.751 36.896h-.271l-95.179 74.018-189.906 36.896h-.241l-95.059 73.914-189.906 36.966h-.241l-95.118 73.966-32.59 6.346h3.825l29.789-5.79h.271l95.088-73.966 189.756-36.913h.271l95.058-73.914 190.027-36.966h.241l95.088-73.914 189.758-36.913h.27l95.06-73.914 189.75-36.914h.27l95.06-73.913 190.15-37.07h.24l15.06-11.667v-1.496l-16.32 12.623-189.97 36.862Zm94.82 37-95 73.966-189.76 36.914h-.27l-95.06 73.914-190.023 36.965h-.241l-94.968 73.966-189.756 36.914h-.271l-95.058 73.914-189.756 36.913h-.271l-55.692 43.295h1.928l55.029-42.808 189.545-36.844h.241l95.088-73.931 189.756-36.896h.271l95.329-73.984 189.759-36.896h.24l95.06-73.879 189.9-36.913h.24l95.09-73.914L1601 115.444v-.748l-111.11 21.456h-.33Zm47.62 240.294-95.09 73.914-189.76 36.914h-.27L1157 561.188l-189.904 36.913h-.241l-31.927 24.812h1.928l31.264-24.342 189.76-36.914h.24l95.09-73.914 189.75-36.913h.27l95.06-73.914 62.56-12.171v-.748l-63.43 12.345-.24.104Zm23.76-323.406-189.75 36.914h-.25l-95.23 73.966-189.76 36.913h-.24l-95.21 73.966-189.756 36.914h-.271l-95.058 73.914-189.756 36.913h-.241l-95.088 73.914-189.756 36.914h-.271l-95.45 74.07-80.119 15.649h3.825l77.318-15.04h.241l95.089-73.914 189.755-36.914h.271l95.059-73.931 189.755-36.896h.241l95.089-73.931 189.755-36.896h.241l95.087-73.932 189.76-36.896h.27l95.06-73.914 190.41-37.226h.25l38.79-30.22V21.9l-40.06 31.14Zm-47.56 92.414-95.06 73.914-189.87 37.001h-.27l-95.06 73.931-189.909 36.844h-.241l-95.088 73.931-189.756 36.896h-.241l-95.209 73.984-189.755 36.913h-.271l-43.915 34.149h1.928l43.161-33.557 189.756-36.914h.241l95.088-73.914 189.756-36.913h.271l95.299-74.071 189.905-36.913h.24l95.06-73.914 189.91-36.966h.24l95.09-73.914 86.32-16.779v-.747l-87.35 16.987-.27.052Zm-47.59 425.018-67.56 52.545h1.93l66.93-52.04 133.85-26.081v-.731l-134.88 26.203-.27.104Zm23.77 9.251-55.67 43.294h1.9l55.06-42.808 110.09-21.403v-.731l-111.05 21.595-.33.053Zm-71.3-27.82-91.32 71.027h1.9l90.69-70.523L1601 517.18v-.748l-182.41 35.523-.33-.052Zm95.06 36.965-43.79 34.062h1.92l43.17-33.558 86.32-16.778v-.748l-87.35 16.97-.27.052Zm-118.58-46.25h-.24l-95.06 73.914-32.44 6.485h3.83l29.75-5.79h.28l94.96-73.966 189.91-36.913h.24l15.06-11.685v-1.478l-16.29 12.658-190 36.775Zm189.91 73.966-8.17 6.346h1.93l7.5-5.842 15.06-2.921v-.748l-16.05 3.113-.27.052Zm-23.77-9.233L1540.85 623h1.9l19.4-15.092 38.79-7.529v-.748l-39.82 7.738-.24-.018Zm-47.5-240.155-95.06 73.931-189.75 36.897h-.27l-95.18 73.931-189.909 36.948h-.241l-43.794 34.062h1.898l43.161-33.558 189.905-36.913h.24l95.06-73.914 189.91-36.913h.24l95.09-74.019 86.32-16.779v-.608l-87.35 16.97-.27-.035Zm23.8 231.009-31.93 24.812h1.93l31.26-24.342 62.56-12.171v-.748l-63.58 12.362-.24.087Zm-166.15-64.733h-.24l-95.08 73.914-80.12 15.649h3.82l77.32-15.041h.27l95.06-73.913 189.9-36.914h.25L1601 467v-1.495l-40.06 31.158-189.91 36.809Zm71.06-193.991-95.06 73.914-189.91 36.913h-.24l-95.09 73.914-189.752 36.913h-.271l-79.426 61.778h1.777l78.824-61.291 189.758-36.896h.27l95.06-73.931 189.9-36.896h.24l95.09-73.914 157.62-30.637v-.817l-158.64 30.828-.15.122Zm47.53 18.482-95.06 73.914-189.76 36.914h-.27l-95.06 73.914-189.903 36.913h-.241l-55.933 43.399h1.928l55.3-42.808 189.759-36.948h.24l95.06-73.931 189.9-36.896h.24l95.09-73.931L1601 337.116v-.765l-111.11 21.56-.27.052Zm-23.83-9.25-95.06 73.932-189.75 36.913h-.24l-95.15 73.966-189.757 36.896h-.241l-67.74 52.597h1.928l66.926-52.04 189.754-36.914h.27l95.06-73.914 189.91-36.913h.24l95.09-73.914 133.85-26.081v-.8L1466 348.661l-.21.052Zm-47.53-18.465-95 73.914-189.9 36.913h-.24l-95.03 73.966-189.756 36.914h-.272l-91.323 71.027h1.928l90.691-70.523 189.752-36.913h.27l95.09-73.932 189.76-36.913h.24l95.06-73.914 181.41-35.262v-.73l-182.41 35.453h-.27Zm-70.99 193.974h-.24l-95.09 73.983-127.65 24.812h3.83l124.84-24.342h.28l95.08-73.897 189.76-36.913h.27l62.56-48.685v-1.495l-63.73 49.641-189.91 36.896Zm-23.76-9.233h-.25l-95.08 73.914-175.03 34.114h3.82l172.38-33.523h.24l95.09-73.931 189.76-36.896h.27l86.32-67.116v-1.495l-87.65 68.02-189.87 36.913Zm118.58 46.251-79.46 61.777h1.93l78.82-61.29L1601 531.09v-.748l-158.64 30.846-.27.052ZM112.353 266.054l189.907-36.897h.24l95.089-73.983 189.756-36.896h.24l95.089-74.036L872.43 7.33h.271l8.162-6.347h-1.928l-7.53 5.843L681.65 43.738h-.241l-94.968 73.984-189.906 36.913h-.271l-95.029 73.914-189.755 36.913h-.241L16.03 339.481.97 342.402v.747l16.295-3.164 95.088-73.931ZM64.824 358.45l95.089-73.914 189.755-36.913h.241l95.089-73.931 189.755-36.896h.271l95.3-74.019L920.23 25.881h.241l31.927-24.829h-1.928l-31.264 24.342L729.3 62.238h-.241l-95.089 73.966-189.755 36.914h-.241l-95.089 73.914-189.755 36.913h-.271l-95.3 74.018L1 370.135v.747l63.583-12.362.241-.07Zm166.051 64.734h.271l95.119-73.966 189.906-36.914h.241l95.089-73.914 189.755-36.913h.271l95.059-73.914 189.754-36.914h.27l95.06-73.93 80.15-15.65h-3.83l-77.34 15.04h-.24l-94.82 73.897-189.757 36.914h-.241l-95.239 73.966-189.756 36.913h-.271l-95.058 73.914-189.756 36.913h-.241l-95.359 74.019-189.756 36.913h-.24L1.12 489.725v1.496l39.999-31.124 189.755-36.913Zm-23.764-9.233h.271l95.058-73.914 189.906-36.913h.241l95.059-73.914 189.906-36.914h.241l95.088-73.914 189.759-36.913h.27l95.06-73.914 32.62-6.346h-3.83l-29.82 5.807h-.24l-94.91 73.74-189.752 36.896h-.271l-95.179 74.001-189.876 36.896h-.271l-95.059 73.914-189.906 36.965h-.241l-95.088 73.967-189.755 36.913h-.241L1.09 461.992v1.478l16.294-12.675 189.726-36.844ZM49.915 1H46.06L16.27 6.807h-.241L.97 18.492v1.495L17.265 7.31 49.915 1Zm86.203 385.183 95.089-73.931 189.755-36.896h.271l95.179-73.984 189.756-36.896h.241l95.239-73.966 189.755-36.913h.241l67.586-52.545h-1.92L990.5 53.04 800.744 89.954h-.271l-95.179 73.966-189.755 36.913h-.241l-95.239 73.966-189.756 36.914h-.271l-95.179 73.966L1 411.76v.73l134.877-26.202.241-.105Zm-23.765-9.25 95.089-73.914 189.756-36.913h.271l95.058-73.914 190.147-36.966h.241l94.938-73.966 189.755-36.913h.241l55.691-43.312h-1.9l-54.905 42.773-189.876 36.948h-.271l-95.059 73.931-189.906 36.914h-.241l-95.088 73.914-189.756 36.913h-.271l-95.179 74.018L1 397.833v.747l111.113-21.595.24-.052Zm-23.764-9.285 95.088-73.914 189.756-36.913h.271l95.119-73.914 189.755-36.913h.271l95.239-73.932L943.844 35.15h.241l43.824-34.062h-1.927L942.97 34.575 753.064 71.471h-.241l-95.058 73.983-189.756 36.897h-.241l-95.329 74.018-189.755 36.861h-.272l-95.088 73.966L1 383.975v.748l87.348-16.97.24-.105ZM64.824 580.209l95.089-73.913 189.755-36.914h.241l95.209-73.914 189.756-36.913h.271l95.058-73.914 190.027-36.966h.241l95.089-73.931 189.75-36.896h.25l95.2-74.07 189.76-36.897h.27l31.9-24.829h-1.9l-31.29 24.342-189.76 36.844h-.24l-95.09 73.966-189.75 36.914h-.28l-95.054 73.914-189.755 36.913h-.241l-95.089 73.914-189.755 36.914h-.241l-95.48 74.07-189.756 36.914h-.271l-95.179 74.018L1 591.946v.748l63.583-12.363.241-.122Zm-23.704-9.232 95.058-73.914 189.846-36.914h.241l95.089-73.914 189.755-36.913h.271l95.059-73.914 189.755-36.913h.271l95.059-73.914 189.906-36.914h.24L1277 53.545l189.76-36.914h.27L1487.06.982h-1.93l-19.34 15.11-189.75 36.844h-.27l-95.12 74.036-189.759 36.913h-.271l-95.058 73.931-189.756 36.897h-.241l-95.088 73.913-189.756 36.914h-.271L325 459.593l-189.755 36.913h-.271l-95.18 73.966L1 578.036v.748l39.819-7.703.3-.104Zm71.294-83.164 189.846-36.914h.24l95.089-73.914 189.756-36.913h.24l95.089-74.018 189.756-36.897h.271L968 155.174l189.76-36.896h.24l95.24-74.036L1442.99 7.33h.27l8.13-6.347h-1.89l-7.53 5.843-189.76 36.913h-.27l-95.06 73.984-189.904 36.913h-.241l-95.089 73.914-189.755 36.913h-.241l-95.209 74.019-189.906 36.861h-.271l-95.029 74.018-189.755 36.914h-.241l-95.24 73.966-15.06 2.921v.748l16.296-3.182 95.179-73.914Zm142.346-55.379h.272l95.058-73.931 189.906-36.897h.241l95.028-73.931 189.756-36.913h.271l95.329-74.053 189.759-36.827h.24l95.06-73.914L1333.26 1h-3.82l-124.85 24.342h-.27l-94.97 73.897-189.903 36.913h-.241l-94.968 73.966-189.756 36.914h-.271l-95.058 73.914-189.756 36.913h-.271l-95.42 74.018-189.755 36.914h-.241L1.15 517.476v1.443l63.674-49.589 189.936-36.896ZM112.353 598.692l95.089-73.914 189.756-36.913h.271l95.058-73.914 190.147-36.966h.241l95.089-73.914 189.755-36.913H968l95.09-74.018 189.75-36.914h.28l95.2-73.966 189.76-36.913h.27l55.69-43.312h-1.74l-55.12 42.773-189.91 36.948h-.24l-95.09 73.931-189.76 36.914h-.27l-95.055 73.914L777.1 302.428h-.271l-95.059 73.931-189.906 36.914h-.241l-95.088 73.931L206.779 524.1h-.271l-95.42 74.105L1 619.592v.747l111.113-21.595.24-.052Zm166.142-157.025h.241l95.088-74.019 189.756-36.913h.241l95.088-73.914 189.756-36.914h.271l95.058-73.913L1133.9 109.08h.24l95.09-73.914 175.21-34.062h-3.83l-172.16 33.419h-.27l-95.06 74.053-189.909 36.826h-.241l-95.088 73.966-189.756 36.914h-.241l-95.088 73.931-189.756 36.896h-.271l-95.299 74.018-189.756 36.897h-.24L1.15 545.139v1.6l87.438-68.159 189.906-36.913Zm-118.582-46.199 95.058-73.966 189.756-36.913h.271l95.058-73.914 189.906-36.914h.241l95.089-73.914 189.758-36.913h.27L1095.02 1h-1.93l-78.83 61.29-189.751 36.914h-.271l-95.179 73.966-189.906 36.914h-.241l-95.059 73.931-189.906 36.931h-.241l-95.118 73.983L.97 425.566v.747l158.672-30.845h.271ZM88.589 589.46l95.088-73.932 189.756-36.896h.271l95.119-73.983 189.755-36.896h.271l95.059-73.914 189.755-36.914h.241l95.086-73.914 189.76-36.913h.24l95.54-74.036 189.75-36.913h.28l43.79-34.062h-1.9l-43.07 33.488-189.75 36.896h-.25l-95.2 73.966-189.76 36.914h-.27l-95.18 74.018-189.906 36.861h-.241l-95.058 73.914-189.756 36.913h-.241l-95.329 74.019-189.755 36.913h-.272l-95.088 73.966L1 605.734v.748l87.348-16.988.24-.034Zm-47.47-240.242 95.059-73.914 189.906-36.914h.241l95.089-73.914 189.755-36.913h.271l95.119-74.018L896.315 16.63h.271L916.615.982h-1.897l-19.397 15.093-189.786 36.861h-.241l-95.088 74.036-189.756 36.913h-.271L325 237.851l-189.755 36.896h-.271l-95.18 73.966L1 356.259v.748l39.819-7.737.3-.052Zm47.47-203.277 95.088-73.879L373.433 35.15h.271L417.619.999h-1.928l-43.252 33.576-189.755 36.896h-.272l-95.088 73.983L1 162.233v.731l87.348-16.97.24-.053Zm47.529 18.483 95.089-73.914 189.755-36.913h.271l67.559-52.545h-1.897L420.059 53.04 230.303 89.954h-.271l-95.179 73.966L1 190.001v.748l134.877-26.273.241-.052Zm23.795 9.233 95.058-73.914L444.727 62.83h.271l79.456-61.778h-1.928l-78.673 61.239-189.906 36.913h-.241l-95.118 73.966L1 203.807v.747l158.642-30.845.271-.052Zm-47.56-18.483 95.089-73.914 189.756-36.913h.271L453.16 1.035h-1.927l-54.939 42.773-189.876 36.948h-.271l-95.059 73.931L1 176.091v.748l111.113-21.613.24-.052Zm71.324 27.82 95.059-74.018 189.906-36.914h.181l91.353-71.027h-1.927l-90.631 70.488-189.756 36.914h-.241l-95.239 73.966L1 217.664v.748l182.406-35.453.271.035ZM121.209 1h-3.825L40.036 16.04h-.241L1 46.242v1.478l40.12-31.141L121.209.999Zm142.618 0h-3.856L87.565 34.523h-.241L1 101.62v1.495L88.59 35.062 263.827 1Zm-71.324 0h-3.796L63.83 25.342h-.24L1.03 74.027v1.513l63.794-49.71L192.503 1Zm14.668 191.261h.271l95.058-74.035 189.907-36.914h.241l95.058-73.914 32.62-6.346h-3.916l-29.788 5.807h-.271l-94.969 73.897-189.906 36.913h-.241l-95.088 73.984-189.876 36.896h-.241L.97 240.233v1.496l16.295-12.676 189.906-36.792ZM64.824 136.709l95.089-73.932 189.755-36.896h.241l31.927-24.829h-1.897l-31.295 24.342-189.755 36.844-.301.053-95.029 73.913L1 148.376v.747l63.583-12.345.241-.069Zm213.671 83.146h.241l95.088-73.914 189.756-36.913h.241l95.088-73.914L834.117 1.052h-3.825l-172.286 33.47h-.241l-95.089 74.054-189.755 36.913h-.271l-95.179 73.879-189.906 37.001h-.241L1 323.502v1.478l87.589-68.107 189.906-37.018Zm-47.62-18.43h.271l95.119-73.966 189.906-36.914h.241l95.089-73.931L691.62.965h-3.826L610.386 16.04h-.271l-94.968 73.966-189.755 36.914h-.241l-95.239 73.966-189.756 36.913h-.24L1.12 267.949v1.495l39.999-31.106 189.755-36.913Zm23.765 9.25h.271L350 136.761l189.755-36.914h.241l95.089-73.914L762.763 1.104h-3.825L634.06 25.447h-.271l-94.877 73.792-189.756 36.913h-.271l-95.179 73.966-189.755 36.914h-.241L1.15 295.717v1.495l63.674-49.537 189.816-37ZM41.12 127.459l94.998-73.914L326.024 16.63h.241L346.295.982h-1.898L325 16.075 135.124 52.936h-.271l-95.058 74.036L1 134.5v.748l39.819-7.737.3-.052Zm71.233-83.217L302.26 7.398h.24l8.163-6.346h-1.928l-7.5 5.842L111.48 43.808h-.241L16.03 117.722.97 120.643v.747l16.295-3.164 95.088-73.984Zm71.324 360.407 95.059-73.914 189.906-36.914h.241l95.058-73.966 189.756-36.896h.241l95.088-73.931 190.024-36.966h.27l91.33-71.027h-1.9l-90.66 70.488-189.756 36.914h-.272l-95.239 73.966-189.755 36.913h-.241l-95.209 73.966-189.756 36.914h-.241l-95.239 73.966L1 439.423v.748l182.406-35.47.271-.052Z" fill="#F1F1F1"/></svg>