<svg width="16" height="16" viewBox="0 0 16 16" fill="none" xmlns="http://www.w3.org/2000/svg">
<g clip-path="url(#clip0_307_23743)">
<rect width="16" height="16" fill="white" fill-opacity="0.01"/>
<g clip-path="url(#clip1_307_23743)">
<path d="M0.499649 9.89914C0.632257 9.89914 0.759434 9.95182 0.853202 10.0456C0.946971 10.1394 0.999649 10.2665 0.999649 10.3991V12.8991C0.999649 13.1644 1.10501 13.4187 1.29254 13.6063C1.48008 13.7938 1.73443 13.8991 1.99965 13.8991H13.9996C14.2649 13.8991 14.5192 13.7938 14.7068 13.6063C14.8943 13.4187 14.9996 13.1644 14.9996 12.8991V10.3991C14.9996 10.2665 15.0523 10.1394 15.1461 10.0456C15.2399 9.95182 15.367 9.89914 15.4996 9.89914C15.6323 9.89914 15.7594 9.95182 15.8532 10.0456C15.947 10.1394 15.9996 10.2665 15.9996 10.3991V12.8991C15.9996 13.4296 15.7889 13.9383 15.4139 14.3134C15.0388 14.6884 14.5301 14.8991 13.9996 14.8991H1.99965C1.46922 14.8991 0.960508 14.6884 0.585436 14.3134C0.210363 13.9383 -0.000350952 13.4296 -0.000350952 12.8991V10.3991C-0.000350952 10.2665 0.0523275 10.1394 0.146096 10.0456C0.239864 9.95182 0.367041 9.89914 0.499649 9.89914Z" fill="white"/>
<path d="M7.64565 1.14515C7.69209 1.09858 7.74727 1.06164 7.80802 1.03643C7.86876 1.01123 7.93388 0.998252 7.99965 0.998252C8.06542 0.998252 8.13054 1.01123 8.19128 1.03643C8.25203 1.06164 8.3072 1.09858 8.35365 1.14515L11.3536 4.14515C11.4475 4.23903 11.5003 4.36637 11.5003 4.49915C11.5003 4.63192 11.4475 4.75926 11.3536 4.85315C11.2598 4.94703 11.1324 4.99978 10.9996 4.99978C10.8669 4.99978 10.7395 4.94703 10.6456 4.85315L8.49965 2.70615V11.4991C8.49965 11.6318 8.44697 11.7589 8.3532 11.8527C8.25943 11.9465 8.13226 11.9991 7.99965 11.9991C7.86704 11.9991 7.73986 11.9465 7.6461 11.8527C7.55233 11.7589 7.49965 11.6318 7.49965 11.4991V2.70615L5.35365 4.85315C5.30716 4.89963 5.25197 4.93651 5.19123 4.96167C5.13049 4.98683 5.06539 4.99978 4.99965 4.99978C4.93391 4.99978 4.8688 4.98683 4.80807 4.96167C4.74733 4.93651 4.69214 4.89963 4.64565 4.85315C4.59916 4.80666 4.56228 4.75147 4.53713 4.69073C4.51197 4.62999 4.49902 4.56489 4.49902 4.49915C4.49902 4.4334 4.51197 4.3683 4.53713 4.30756C4.56228 4.24682 4.59916 4.19163 4.64565 4.14515L7.64565 1.14515Z" fill="white"/>
</g>
</g>
<defs>
<clipPath id="clip0_307_23743">
<rect width="16" height="16" fill="white"/>
</clipPath>
<clipPath id="clip1_307_23743">
<rect width="16" height="16" fill="white"/>
</clipPath>
</defs>
</svg>
