<svg width="383" height="345" viewBox="0 0 383 345" fill="none" xmlns="http://www.w3.org/2000/svg">
<g clip-path="url(#clip0_355_975)">
<path d="M167.395 285.332H7.58857C5.57665 285.33 3.64779 284.533 2.22514 283.117C0.802502 281.701 0.00226428 279.78 0 277.777V61.7777C0.00226428 59.7745 0.802501 57.8541 2.22514 56.4376C3.64779 55.0212 5.57665 54.2244 7.58857 54.2222H167.395C169.407 54.2244 171.336 55.0212 172.759 56.4376C174.181 57.8541 174.981 59.7745 174.984 61.7777V277.777C174.981 279.78 174.181 281.701 172.759 283.117C171.336 284.533 169.407 285.33 167.395 285.332Z" fill="white"/>
<path d="M80.288 110.437C80.288 116.675 78.3059 122.753 74.6253 127.802C70.9447 132.85 65.7544 136.61 59.7972 138.543C59.6191 138.6 59.4411 138.656 59.2602 138.71C58.4885 138.946 57.706 139.148 56.91 139.32C55.4694 139.631 54.0073 139.833 52.5361 139.924C51.8967 139.967 51.2536 139.988 50.6068 139.988C47.2653 139.992 43.9472 139.432 40.7931 138.334C40.7014 138.301 40.6097 138.269 40.5207 138.237C35.4103 136.399 30.9046 133.2 27.4945 128.989C24.0843 124.777 21.9006 119.715 21.1812 114.352C20.4619 108.99 21.2345 103.534 23.4149 98.5794C25.5953 93.6243 29.0998 89.3602 33.5466 86.2516C37.9933 83.143 43.2117 81.3092 48.6332 80.95C54.0546 80.5908 59.471 81.7201 64.2922 84.2147C69.1135 86.7093 73.1545 90.4736 75.9751 95.0973C78.7956 99.7211 80.2874 105.027 80.288 110.437V110.437Z" fill="white"/>
<path d="M49.8951 130.016C57.8706 130.016 64.3361 123.579 64.3361 115.638C64.3361 107.697 57.8706 101.26 49.8951 101.26C41.9196 101.26 35.4541 107.697 35.4541 115.638C35.4541 123.579 41.9196 130.016 49.8951 130.016Z" fill="#00DBFF"/>
<path d="M50.739 123.385L50.754 122.847C49.7501 122.819 48.8649 122.757 48.1999 122.273C48.0113 122.128 47.8563 121.944 47.7454 121.734C47.6346 121.525 47.5704 121.293 47.5573 121.056C47.5456 120.912 47.5676 120.766 47.6215 120.631C47.6755 120.497 47.7599 120.376 47.8683 120.279C48.1196 120.127 48.4073 120.046 48.7012 120.043C48.995 120.041 49.2841 120.117 49.538 120.264L49.9846 120.468L49.1283 114.238L48.5937 114.311L49.322 119.61C49.0239 119.5 48.7028 119.466 48.388 119.511C48.0733 119.556 47.7749 119.679 47.52 119.868C47.3486 120.018 47.2141 120.204 47.127 120.413C47.0399 120.623 47.0026 120.849 47.018 121.075C47.0338 121.394 47.1193 121.704 47.2684 121.986C47.4176 122.268 47.6268 122.514 47.8815 122.707C48.7361 123.329 49.8466 123.36 50.739 123.385Z" fill="#009ADE"/>
<path d="M45.9494 114.768H43.043V115.305H45.9494V114.768Z" fill="#009ADE"/>
<path d="M55.1233 114.768H52.2168V115.305H55.1233V114.768Z" fill="#009ADE"/>
<path d="M53.9984 135.738C54.0367 135.562 54.0566 135.382 54.0578 135.201C54.0567 134.525 53.7863 133.876 53.3058 133.398C52.8253 132.919 52.174 132.65 51.4944 132.649H47.7168C47.0372 132.65 46.3855 132.919 45.9049 133.397C45.4243 133.876 45.1541 134.524 45.1535 135.201C45.1533 135.383 45.1732 135.564 45.2127 135.741C43.7867 136.188 42.4388 136.853 41.2167 137.71C40.9791 137.874 40.7445 138.052 40.5205 138.237C40.6096 138.269 40.7013 138.301 40.793 138.334C43.9471 139.432 47.2651 139.992 50.6067 139.989C51.2542 139.989 51.8973 139.967 52.5359 139.924C54.0071 139.833 55.4693 139.631 56.9098 139.32C57.7059 139.148 58.4883 138.946 59.26 138.71C57.7333 137.365 55.9411 136.353 53.9984 135.738Z" fill="#009ADE"/>
<path d="M53.5129 139.583C53.1628 139.608 52.8257 139.726 52.5361 139.924C54.0073 139.833 55.4695 139.631 56.91 139.319L53.5129 139.583Z" fill="#009ADE"/>
<path d="M62.9928 112.222L37.9058 103.085C37.6369 102.987 37.4182 102.787 37.2976 102.528C37.1771 102.27 37.1646 101.974 37.263 101.706L37.3478 101.307C39.3071 95.9745 45.801 92.6186 51.1566 94.5693L58.8765 97.3812C64.2321 99.3319 66.5598 105.646 64.6005 110.978L64.3772 111.582C64.2788 111.85 64.0777 112.068 63.8181 112.188C63.5585 112.308 63.2616 112.32 62.9928 112.222Z" fill="#009ADE"/>
<path d="M64.3442 112.729C29.3779 114.014 26.3225 109.639 36.9766 102.761L39.2368 98.6201L65.1403 108.023L64.3442 112.729Z" fill="#009ADE"/>
<path d="M57.4876 96.7253C57.6806 96.0859 56.8537 95.2732 55.6407 94.9102C54.4276 94.5471 53.2877 94.7712 53.0947 95.4106C52.9016 96.05 53.7285 96.8627 54.9416 97.2257C56.1546 97.5888 57.2945 97.3647 57.4876 96.7253Z" fill="#009ADE"/>
<path d="M50.6069 140.794C47.1742 140.798 43.7656 140.223 40.5255 139.094L40.2439 138.994C33.4572 136.552 27.7603 131.793 24.1665 125.562C20.5726 119.332 19.3147 112.034 20.6165 104.967C21.9183 97.8999 25.6953 91.5216 31.276 86.9664C36.8566 82.4113 43.8791 79.9744 51.0945 80.0893C58.3099 80.2042 65.2505 82.8634 70.682 87.5939C76.1134 92.3245 79.6837 98.8197 80.7578 105.925C81.832 113.029 80.3403 120.283 76.5482 126.396C72.7561 132.509 66.9092 137.085 60.0475 139.309C59.8558 139.37 59.6753 139.427 59.4919 139.482C58.7255 139.716 57.9124 139.927 57.0816 140.107C55.6009 140.426 54.098 140.634 52.5859 140.728C51.9362 140.772 51.2688 140.794 50.6069 140.794ZM50.6069 81.6904C43.8129 81.6914 37.2369 84.0774 32.0353 88.4289C26.8337 92.7804 23.3398 98.8187 22.168 105.482C20.9962 112.145 22.2216 119.006 25.6287 124.858C29.0357 130.71 34.4062 135.179 40.7956 137.478L41.063 137.573C44.1303 138.642 47.3572 139.186 50.6069 139.182C51.2325 139.182 51.8632 139.161 52.4815 139.12C53.9135 139.031 55.3367 138.834 56.7389 138.531C57.5247 138.362 58.293 138.162 59.0222 137.939C59.2028 137.885 59.3742 137.831 59.5457 137.777C66.081 135.657 71.6427 131.287 75.2311 125.45C78.8194 119.613 80.199 112.693 79.1218 105.935C78.0446 99.1759 74.5813 93.0213 69.3545 88.5773C64.1277 84.1333 57.4802 81.6914 50.6069 81.6904Z" fill="#CCCCCC"/>
<path d="M167.395 285.332H7.58857C5.57665 285.33 3.64779 284.533 2.22514 283.117C0.802502 281.701 0.00226428 279.78 0 277.777V61.7777C0.00226428 59.7745 0.802501 57.8541 2.22514 56.4376C3.64779 55.0212 5.57665 54.2244 7.58857 54.2222H167.395C169.407 54.2244 171.336 55.0212 172.759 56.4376C174.181 57.8541 174.981 59.7745 174.984 61.7777V277.777C174.981 279.78 174.181 281.701 172.759 283.117C171.336 284.533 169.407 285.33 167.395 285.332ZM7.58857 55.1111C5.81335 55.1131 4.11143 55.8161 2.85616 57.0659C1.60089 58.3157 0.894787 60.0102 0.892774 61.7777V277.777C0.894785 279.544 1.60087 281.239 2.85614 282.489C4.11141 283.739 5.81335 284.442 7.58857 284.444H167.395C169.17 284.442 170.872 283.739 172.127 282.489C173.383 281.239 174.089 279.544 174.091 277.777V61.7777C174.089 60.0102 173.383 58.3157 172.127 57.0659C170.872 55.8161 169.17 55.1131 167.395 55.1111H7.58857Z" fill="#CCCCCC"/>
<path d="M136.459 110.321H91.239C90.291 110.32 89.3822 109.944 88.7123 109.277C88.0423 108.609 87.666 107.703 87.666 106.76C87.666 105.816 88.0423 104.91 88.7123 104.243C89.3822 103.575 90.291 103.199 91.239 103.198H136.459C136.929 103.197 137.395 103.289 137.829 103.468C138.264 103.646 138.659 103.909 138.991 104.239C139.324 104.57 139.588 104.963 139.768 105.395C139.948 105.828 140.041 106.291 140.041 106.76C140.041 107.228 139.948 107.691 139.768 108.124C139.588 108.556 139.324 108.949 138.991 109.28C138.659 109.611 138.264 109.873 137.829 110.052C137.395 110.23 136.929 110.322 136.459 110.321Z" fill="#E6E6E6"/>
<path d="M151.215 122.342H91.239C90.291 122.341 89.3822 121.965 88.7123 121.298C88.0423 120.63 87.666 119.724 87.666 118.781C87.666 117.837 88.0423 116.931 88.7123 116.264C89.3822 115.596 90.291 115.22 91.239 115.219H151.215C152.163 115.22 153.072 115.596 153.742 116.264C154.412 116.931 154.788 117.837 154.788 118.781C154.788 119.724 154.412 120.63 153.742 121.298C153.072 121.965 152.163 122.341 151.215 122.342Z" fill="#E6E6E6"/>
<path d="M136.392 168.449H23.7684C23.2982 168.449 22.8325 168.358 22.398 168.179C21.9634 168 21.5685 167.738 21.2359 167.407C20.9032 167.076 20.6393 166.684 20.4593 166.251C20.2792 165.819 20.1865 165.355 20.1865 164.887C20.1865 164.419 20.2792 163.955 20.4593 163.523C20.6393 163.091 20.9032 162.698 21.2359 162.367C21.5685 162.036 21.9634 161.774 22.398 161.595C22.8325 161.416 23.2982 161.325 23.7684 161.325H136.392C137.34 161.326 138.249 161.702 138.919 162.37C139.589 163.038 139.965 163.943 139.965 164.887C139.965 165.831 139.589 166.736 138.919 167.404C138.249 168.072 137.34 168.448 136.392 168.449Z" fill="#E6E6E6"/>
<path d="M151.149 180.47H23.7684C23.2982 180.47 22.8325 180.379 22.398 180.2C21.9634 180.021 21.5685 179.759 21.2359 179.428C20.9032 179.097 20.6393 178.705 20.4593 178.272C20.2792 177.84 20.1865 177.376 20.1865 176.908C20.1865 176.44 20.2792 175.976 20.4593 175.544C20.6393 175.112 20.9032 174.719 21.2359 174.388C21.5685 174.057 21.9634 173.795 22.398 173.616C22.8325 173.437 23.2982 173.346 23.7684 173.346H151.149C151.619 173.346 152.085 173.437 152.52 173.616C152.954 173.795 153.349 174.057 153.682 174.388C154.014 174.719 154.278 175.112 154.458 175.544C154.638 175.976 154.731 176.44 154.731 176.908C154.731 177.376 154.638 177.84 154.458 178.272C154.278 178.705 154.014 179.097 153.682 179.428C153.349 179.759 152.954 180.021 152.52 180.2C152.085 180.379 151.619 180.47 151.149 180.47Z" fill="#E6E6E6"/>
<path d="M136.393 208.099H23.7688C22.82 208.099 21.9101 207.723 21.2392 207.055C20.5683 206.388 20.1914 205.482 20.1914 204.537C20.1914 203.592 20.5683 202.686 21.2392 202.018C21.9101 201.35 22.82 200.975 23.7688 200.975H136.393C137.342 200.975 138.252 201.35 138.923 202.018C139.593 202.686 139.97 203.592 139.97 204.537C139.97 205.482 139.593 206.388 138.923 207.055C138.252 207.723 137.342 208.099 136.393 208.099Z" fill="#E6E6E6"/>
<path d="M151.15 220.12H23.7688C22.82 220.12 21.9101 219.745 21.2392 219.077C20.5683 218.409 20.1914 217.503 20.1914 216.558C20.1914 215.614 20.5683 214.708 21.2392 214.04C21.9101 213.372 22.82 212.997 23.7688 212.997H151.15C152.098 212.997 153.008 213.372 153.679 214.04C154.35 214.708 154.727 215.614 154.727 216.558C154.727 217.503 154.35 218.409 153.679 219.077C153.008 219.745 152.098 220.12 151.15 220.12Z" fill="#E6E6E6"/>
<path d="M136.393 247.749H23.7688C22.82 247.749 21.9101 247.374 21.2392 246.706C20.5683 246.038 20.1914 245.132 20.1914 244.187C20.1914 243.243 20.5683 242.337 21.2392 241.669C21.9101 241.001 22.82 240.625 23.7688 240.625H136.393C137.342 240.625 138.252 241.001 138.923 241.669C139.593 242.337 139.97 243.243 139.97 244.187C139.97 245.132 139.593 246.038 138.923 246.706C138.252 247.374 137.342 247.749 136.393 247.749Z" fill="#E6E6E6"/>
<path d="M151.15 259.77H23.7688C22.82 259.77 21.9101 259.395 21.2392 258.727C20.5683 258.059 20.1914 257.153 20.1914 256.208C20.1914 255.264 20.5683 254.358 21.2392 253.69C21.9101 253.022 22.82 252.646 23.7688 252.646H151.15C152.098 252.646 153.008 253.022 153.679 253.69C154.35 254.358 154.727 255.264 154.727 256.208C154.727 257.153 154.35 258.059 153.679 258.727C153.008 259.395 152.098 259.77 151.15 259.77Z" fill="#E6E6E6"/>
<path d="M375.412 231.11L215.605 231.11C213.593 231.108 211.665 230.311 210.242 228.895C208.819 227.479 208.019 225.558 208.017 223.555L208.017 7.55566C208.019 5.55251 208.819 3.63204 210.242 2.21559C211.664 0.799138 213.593 0.00238092 215.605 0.00012505L375.412 0C377.424 0.00225297 379.352 0.798998 380.775 2.21545C382.198 3.63189 382.998 5.55236 383 7.55552L383 223.555C382.998 225.558 382.198 227.478 380.775 228.895C379.353 230.311 377.424 231.108 375.412 231.11Z" fill="white"/>
<path d="M375.412 231.11L215.605 231.11C213.593 231.108 211.665 230.311 210.242 228.895C208.819 227.479 208.019 225.558 208.017 223.555L208.017 7.55566C208.019 5.55251 208.819 3.63204 210.242 2.21559C211.664 0.799138 213.593 0.00238092 215.605 0.00012505L375.412 0C377.424 0.00225297 379.352 0.798998 380.775 2.21545C382.198 3.63189 382.998 5.55236 383 7.55552L383 223.555C382.998 225.558 382.198 227.478 380.775 228.895C379.353 230.311 377.424 231.108 375.412 231.11ZM215.605 0.889011C213.83 0.891015 212.128 1.59404 210.873 2.84385C209.617 4.09365 208.911 5.78818 208.909 7.55566L208.91 223.555C208.912 225.322 209.618 227.017 210.873 228.267C212.128 229.517 213.83 230.22 215.605 230.222L375.412 230.221C377.187 230.219 378.889 229.516 380.144 228.267C381.4 227.017 382.106 225.322 382.108 223.555L382.107 7.55553C382.105 5.78804 381.399 4.09352 380.144 2.84371C378.889 1.59391 377.187 0.890887 375.412 0.888886L215.605 0.889011Z" fill="#CCCCCC"/>
<path d="M288.379 55.92C288.379 61.7648 286.638 67.4784 283.377 72.3382C280.115 77.1979 275.48 80.9857 270.056 83.2224C264.633 85.4591 258.665 86.0443 252.907 84.9041C247.15 83.7638 241.861 80.9493 237.71 76.8164C233.559 72.6835 230.732 67.4178 229.587 61.6853C228.442 55.9528 229.029 50.0109 231.276 44.611C233.522 39.2111 237.327 34.5958 242.208 31.3486C247.089 28.1014 252.827 26.3682 258.698 26.3682C266.569 26.3706 274.117 29.4849 279.683 35.0264C285.248 40.5679 288.376 48.0831 288.379 55.92Z" fill="white"/>
<path d="M272.416 60.9767C272.092 79.8767 243.856 79.8738 243.534 60.9761C243.858 42.0767 272.095 42.0797 272.416 60.9767Z" fill="#00DBFF"/>
<path d="M257.402 66.8431L257.387 66.3058C261.106 66.8002 261.907 62.2106 258.156 63.9265L259.012 57.6963L259.547 57.7692L258.819 63.0688C262.768 62.4835 261.307 67.3801 257.402 66.8431Z" fill="#009ADE"/>
<path d="M265.098 58.2261H262.191V58.7634H265.098V58.2261Z" fill="#009ADE"/>
<path d="M255.923 58.2261H253.017V58.7634H255.923V58.2261Z" fill="#009ADE"/>
<path d="M262.656 81.0794C263.222 77.2726 258.746 78.0248 256.377 77.9872C255.995 77.9884 255.618 78.0744 255.274 78.2389C254.929 78.4035 254.626 78.6425 254.386 78.9384C254.146 79.2344 253.976 79.5799 253.887 79.9499C253.798 80.3198 253.793 80.7047 253.873 81.0767C252.039 81.641 250.341 82.5737 248.884 83.817C255.026 85.9494 261.7 86.0229 267.888 84.0265C266.379 82.6777 264.594 81.6721 262.656 81.0794Z" fill="#009ADE"/>
<path d="M251.186 54.1763C253.862 52.6363 257.107 53.8177 259.872 54.4637C265.117 56.069 272.472 54.0588 273.11 47.838C273.774 42.0526 265.825 38.8281 263.284 44.5863L264.024 44.4901C255.784 32.298 241.451 32.7604 241.546 49.5223C241.515 50.0402 242.325 50.0384 242.355 49.522C242.052 39.6445 248.617 32.8925 257.899 39.2402C259.971 40.8559 261.799 42.7611 263.325 44.8968C264.292 45.9753 264.502 41.3306 269.128 42.5472C274.219 44.511 272.558 51.7696 268.007 53.3631C262.384 56.2233 256.295 50.6778 250.777 53.48C250.688 53.5359 250.625 53.6239 250.6 53.7255C250.575 53.8271 250.591 53.9344 250.644 54.0247C250.697 54.115 250.783 54.1812 250.884 54.2095C250.985 54.2378 251.093 54.2259 251.186 54.1763Z" fill="#009ADE"/>
<path d="M258.698 86.2779C251.033 86.2715 243.652 83.3886 238.028 78.2042C232.403 73.0198 228.948 65.915 228.351 58.3066C227.755 50.6982 230.06 43.1456 234.809 37.1548C239.557 31.1641 246.399 27.1757 253.97 25.9849C261.541 24.7941 269.285 26.4886 275.657 30.7303C282.029 34.972 286.56 41.4493 288.348 48.8703C290.136 56.2913 289.049 64.1106 285.303 70.7688C281.557 77.4269 275.428 82.4346 268.139 84.7931C265.09 85.7803 261.904 86.2814 258.698 86.2779ZM258.698 27.1742C252.987 27.1733 247.403 28.8589 242.654 32.0177C237.905 35.1765 234.203 39.6666 232.017 44.9201C229.831 50.1737 229.259 55.9547 230.373 61.532C231.487 67.1093 234.237 72.2325 238.276 76.2535C242.314 80.2745 247.46 83.0127 253.062 84.1219C258.663 85.2311 264.47 84.6614 269.746 82.4849C275.023 80.3084 279.532 76.6228 282.705 71.8942C285.878 67.1657 287.571 61.6066 287.57 55.92C287.561 48.2988 284.516 40.9922 279.104 35.6031C273.691 30.2141 266.353 27.1828 258.698 27.1742Z" fill="#CCCCCC"/>
<path d="M344.475 56.0992L299.255 56.0993C298.306 56.0993 297.396 55.724 296.726 55.056C296.055 54.3881 295.678 53.4821 295.678 52.5374C295.678 51.5928 296.055 50.6868 296.726 50.0188C297.396 49.3509 298.306 48.9756 299.255 48.9756L344.475 48.9756C345.424 48.9756 346.334 49.3508 347.004 50.0188C347.675 50.6868 348.052 51.5927 348.052 52.5374C348.052 53.4821 347.675 54.388 347.004 55.056C346.334 55.724 345.424 56.0992 344.475 56.0992Z" fill="#E6E6E6"/>
<path d="M359.231 68.1207L299.255 68.1208C298.785 68.1213 298.319 68.0296 297.884 67.8509C297.45 67.6722 297.055 67.4099 296.722 67.0791C296.39 66.7483 296.126 66.3554 295.946 65.923C295.766 65.4906 295.673 65.0271 295.673 64.5589C295.673 64.0908 295.766 63.6273 295.946 63.1949C296.126 62.7624 296.39 62.3696 296.722 62.0388C297.055 61.708 297.45 61.4457 297.884 61.267C298.319 61.0882 298.785 60.9965 299.255 60.9971L359.231 60.9971C360.18 60.9971 361.09 61.3723 361.761 62.0403C362.432 62.7083 362.809 63.6142 362.809 64.5589C362.809 65.5035 362.432 66.4095 361.761 67.0775C361.09 67.7454 360.18 68.1207 359.231 68.1207Z" fill="#E6E6E6"/>
<path d="M344.409 114.227L231.785 114.227C230.837 114.226 229.928 113.85 229.258 113.182C228.588 112.514 228.212 111.609 228.212 110.665C228.212 109.721 228.588 108.816 229.258 108.148C229.928 107.48 230.837 107.104 231.785 107.103L344.409 107.103C345.358 107.103 346.268 107.478 346.939 108.146C347.61 108.814 347.986 109.72 347.986 110.665C347.986 111.609 347.61 112.515 346.939 113.183C346.268 113.851 345.358 114.227 344.409 114.227Z" fill="#E6E6E6"/>
<path d="M359.166 126.248L231.785 126.248C231.315 126.248 230.849 126.157 230.415 125.978C229.98 125.799 229.585 125.537 229.252 125.206C228.92 124.875 228.656 124.482 228.476 124.05C228.296 123.618 228.203 123.154 228.203 122.686C228.203 122.218 228.296 121.754 228.476 121.322C228.656 120.889 228.92 120.497 229.252 120.166C229.585 119.835 229.98 119.573 230.415 119.394C230.849 119.215 231.315 119.124 231.785 119.124L359.166 119.124C360.115 119.124 361.025 119.499 361.695 120.167C362.366 120.835 362.743 121.741 362.743 122.686C362.743 123.63 362.366 124.536 361.695 125.204C361.025 125.872 360.115 126.248 359.166 126.248Z" fill="#E6E6E6"/>
<path d="M344.409 153.877L231.785 153.877C230.837 153.876 229.928 153.5 229.258 152.832C228.588 152.165 228.212 151.259 228.212 150.315C228.212 149.371 228.588 148.466 229.258 147.798C229.928 147.13 230.837 146.755 231.785 146.754L344.409 146.753C345.358 146.753 346.268 147.129 346.939 147.797C347.61 148.465 347.986 149.371 347.986 150.315C347.986 151.26 347.61 152.166 346.939 152.834C346.268 153.502 345.358 153.877 344.409 153.877Z" fill="#E6E6E6"/>
<path d="M359.166 165.898L231.785 165.898C231.315 165.899 230.849 165.807 230.415 165.628C229.98 165.45 229.585 165.187 229.252 164.856C228.92 164.526 228.656 164.133 228.476 163.7C228.296 163.268 228.203 162.804 228.203 162.336C228.203 161.868 228.296 161.405 228.476 160.972C228.656 160.54 228.92 160.147 229.252 159.816C229.585 159.485 229.98 159.223 230.415 159.044C230.849 158.866 231.315 158.774 231.785 158.775L359.166 158.774C360.115 158.774 361.025 159.15 361.695 159.818C362.366 160.486 362.743 161.392 362.743 162.336C362.743 163.281 362.366 164.187 361.695 164.855C361.025 165.523 360.115 165.898 359.166 165.898Z" fill="#E6E6E6"/>
<path d="M344.409 193.527L231.784 193.527C230.836 193.527 229.926 193.152 229.255 192.484C228.584 191.816 228.207 190.91 228.207 189.965C228.207 189.021 228.584 188.115 229.255 187.447C229.926 186.779 230.836 186.403 231.784 186.403L344.409 186.403C345.357 186.403 346.267 186.779 346.938 187.447C347.609 188.115 347.986 189.02 347.986 189.965C347.986 190.91 347.609 191.816 346.938 192.484C346.267 193.152 345.357 193.527 344.409 193.527Z" fill="#E6E6E6"/>
<path d="M359.165 205.548L231.784 205.549C230.836 205.549 229.926 205.173 229.255 204.505C228.584 203.837 228.207 202.931 228.207 201.987C228.207 201.042 228.584 200.136 229.255 199.468C229.926 198.8 230.836 198.425 231.784 198.425L359.165 198.425C360.114 198.425 361.024 198.8 361.695 199.468C362.366 200.136 362.743 201.042 362.743 201.987C362.743 202.931 362.366 203.837 361.695 204.505C361.024 205.173 360.114 205.548 359.165 205.548Z" fill="#E6E6E6"/>
<path d="M278.992 323.999H119.185C117.173 323.997 115.244 323.2 113.822 321.783C112.399 320.367 111.599 318.447 111.597 316.443V100.444C111.599 98.441 112.399 96.5206 113.822 95.1041C115.244 93.6877 117.173 92.8909 119.185 92.8887H278.992C281.004 92.8909 282.933 93.6877 284.355 95.1041C285.778 96.5206 286.578 98.441 286.58 100.444V316.443C286.578 318.447 285.778 320.367 284.355 321.783C282.933 323.2 281.004 323.997 278.992 323.999Z" fill="white"/>
<path d="M132.514 148.496C132.509 152.385 133.277 156.237 134.775 159.83C136.272 163.422 138.47 166.684 141.24 169.426C141.472 169.655 141.709 169.883 141.95 170.106C143.396 171.452 144.974 172.65 146.661 173.682C146.985 173.881 147.308 174.072 147.64 174.257C149.346 175.214 151.143 176 153.004 176.602C153.326 176.707 153.652 176.806 153.978 176.898C159.897 178.588 166.195 178.411 172.009 176.393C172.122 176.352 172.235 176.312 172.346 176.272C177.449 174.423 181.945 171.216 185.345 167C188.744 162.784 190.917 157.72 191.627 152.36C192.336 146.999 191.555 141.548 189.369 136.599C187.182 131.649 183.674 127.392 179.226 124.291C174.778 121.189 169.561 119.362 164.142 119.007C158.723 118.653 153.311 119.786 148.494 122.282C143.677 124.778 139.639 128.542 136.822 133.164C134.004 137.786 132.514 143.089 132.514 148.496Z" fill="white"/>
<path d="M155.926 162.98C155.941 165.27 155.093 167.481 153.551 169.179C152.025 170.847 149.753 171.953 147.46 171.495C145.349 171.074 143.633 169.237 143.847 167.014C143.883 166.533 144.023 166.065 144.259 165.643C144.495 165.222 144.82 164.856 145.212 164.572C145.604 164.288 146.054 164.093 146.53 164C147.005 163.907 147.496 163.919 147.967 164.034C149.972 164.552 150.771 167.43 149.1 168.78C148.699 169.105 148.123 168.538 148.528 168.211C148.777 167.983 148.966 167.697 149.075 167.379C149.185 167.06 149.213 166.72 149.156 166.388C149.1 166.056 148.96 165.743 148.751 165.479C148.541 165.214 148.269 165.006 147.958 164.874C147.591 164.757 147.202 164.725 146.82 164.78C146.439 164.834 146.075 164.975 145.756 165.19C145.437 165.406 145.172 165.691 144.98 166.024C144.788 166.356 144.675 166.728 144.649 167.111C144.516 168.984 145.958 170.396 147.726 170.728C149.638 171.087 151.534 170.113 152.83 168.767C154.316 167.205 155.135 165.131 155.117 162.98C155.12 162.875 155.165 162.776 155.24 162.704C155.316 162.631 155.417 162.59 155.522 162.59C155.627 162.59 155.728 162.631 155.803 162.704C155.879 162.776 155.923 162.875 155.926 162.98V162.98Z" fill="#009ADE"/>
<path d="M163.831 168.104C171.806 168.104 178.272 161.667 178.272 153.726C178.272 145.785 171.806 139.348 163.831 139.348C155.855 139.348 149.39 145.785 149.39 153.726C149.39 161.667 155.855 168.104 163.831 168.104Z" fill="#00DBFF"/>
<path d="M163.092 159.861L163.077 159.323C164.081 159.296 164.966 159.233 165.631 158.749C165.82 158.604 165.975 158.42 166.086 158.211C166.197 158.001 166.261 157.769 166.274 157.533C166.286 157.388 166.264 157.242 166.21 157.108C166.156 156.973 166.071 156.852 165.963 156.755C165.712 156.603 165.424 156.522 165.13 156.519C164.836 156.517 164.547 156.593 164.293 156.74L163.847 156.944L164.703 150.714L165.238 150.787L164.509 156.086C164.807 155.976 165.128 155.942 165.443 155.987C165.758 156.032 166.056 156.155 166.311 156.345C166.483 156.494 166.617 156.68 166.704 156.889C166.791 157.099 166.829 157.325 166.813 157.551C166.797 157.87 166.712 158.181 166.563 158.462C166.414 158.744 166.204 158.99 165.95 159.183C165.095 159.805 163.985 159.836 163.092 159.861Z" fill="#009ADE"/>
<path d="M170.788 151.244H167.882V151.781H170.788V151.244Z" fill="#009ADE"/>
<path d="M161.613 151.244H158.707V151.781H161.613V151.244Z" fill="#009ADE"/>
<path d="M153.979 176.898C159.897 178.588 166.195 178.411 172.009 176.393C172.122 176.352 172.235 176.312 172.346 176.272C170.976 175.22 169.427 174.422 167.772 173.918C167.889 173.505 167.887 173.068 167.767 172.656C167.603 172.133 167.274 171.677 166.829 171.356C166.385 171.035 165.847 170.865 165.298 170.872H161.779C161.231 170.864 160.694 171.034 160.25 171.355C159.806 171.676 159.479 172.131 159.316 172.653C159.195 173.066 159.193 173.504 159.31 173.918C157.853 174.363 156.476 175.035 155.231 175.909C154.98 176.084 154.737 176.266 154.502 176.457C154.324 176.6 154.149 176.747 153.979 176.898Z" fill="#009ADE"/>
<path d="M175.144 152.2C175.144 154.623 176.342 156.633 177.899 156.982C178.057 157.017 178.219 157.035 178.382 157.036C180.165 157.036 181.619 154.868 181.619 152.2C181.66 150.825 181.219 149.478 180.373 148.391C180.11 148.073 179.786 147.811 179.42 147.619C179.1 147.453 178.743 147.365 178.382 147.364C177.885 147.37 177.402 147.532 177.003 147.826C175.904 148.6 175.144 150.268 175.144 152.2Z" fill="#3F3D56"/>
<path d="M146.272 152.2C146.272 154.285 147.157 156.063 148.398 156.743C148.738 156.933 149.12 157.033 149.51 157.036C149.597 157.036 149.683 157.03 149.769 157.02C151.431 156.824 152.748 154.739 152.748 152.2C152.748 150.166 151.903 148.423 150.711 147.711C150.35 147.488 149.934 147.368 149.51 147.364C149.148 147.365 148.792 147.453 148.471 147.619C148.105 147.812 147.78 148.075 147.516 148.393C146.672 149.481 146.233 150.826 146.272 152.2Z" fill="#3F3D56"/>
<path d="M148.601 156.28C148.665 156.28 148.728 156.264 148.785 156.235C148.842 156.206 148.892 156.163 148.929 156.111C148.967 156.06 148.991 155.999 149.001 155.936C149.01 155.873 149.005 155.808 148.984 155.748C148.211 153.457 147.978 151.02 148.304 148.626C148.63 146.231 149.507 143.944 150.865 141.942C152.224 139.939 154.027 138.276 156.137 137.081C158.246 135.885 160.603 135.19 163.026 135.049C165.449 134.909 167.872 135.326 170.106 136.269C172.34 137.212 174.326 138.655 175.909 140.487C177.493 142.318 178.63 144.489 179.234 146.829C179.838 149.17 179.891 151.617 179.39 153.981C179.368 154.086 179.389 154.195 179.448 154.284C179.506 154.373 179.598 154.436 179.703 154.458C179.808 154.48 179.917 154.46 180.007 154.402C180.097 154.343 180.16 154.252 180.182 154.148C180.709 151.662 180.653 149.089 180.019 146.628C179.384 144.167 178.188 141.885 176.524 139.959C174.86 138.034 172.772 136.516 170.422 135.524C168.073 134.533 165.526 134.094 162.978 134.242C160.431 134.39 157.952 135.121 155.735 136.378C153.517 137.635 151.621 139.384 150.193 141.49C148.765 143.595 147.844 146 147.501 148.518C147.158 151.035 147.403 153.597 148.217 156.005C148.244 156.085 148.296 156.155 148.364 156.204C148.433 156.253 148.516 156.28 148.601 156.28Z" fill="#3F3D56"/>
<path d="M171.085 144.41C171.325 144.8 171.424 145.259 171.367 145.712C171.311 146.165 171.101 146.586 170.772 146.905C169.988 147.776 168.738 147.831 167.653 147.67C166.435 147.488 165.143 146.92 163.909 147.303C162.858 147.629 162.109 148.578 161.017 148.817C160.048 149.028 158.89 148.748 158.551 147.721C158.387 147.227 159.169 147.015 159.331 147.506C159.551 148.171 160.499 148.158 161.042 147.974C161.913 147.679 162.584 146.961 163.44 146.618C164.46 146.303 165.552 146.306 166.571 146.626C167.539 146.843 168.653 147.165 169.618 146.76C170.331 146.46 170.899 145.515 170.386 144.817C170.078 144.398 170.78 143.995 171.085 144.41V144.41Z" fill="#009ADE"/>
<path d="M162.195 178.854C159.339 178.856 156.498 178.458 153.754 177.672C153.431 177.582 153.093 177.479 152.752 177.368C150.84 176.749 148.995 175.942 147.243 174.959C146.914 174.776 146.584 174.582 146.236 174.368C144.504 173.307 142.883 172.077 141.397 170.695C141.151 170.467 140.908 170.234 140.671 170C135.997 165.361 132.962 159.337 132.021 152.833C131.079 146.329 132.283 139.697 135.451 133.932C138.619 128.168 143.581 123.583 149.59 120.865C155.599 118.148 162.331 117.446 168.775 118.863C175.219 120.281 181.028 123.743 185.327 128.728C189.627 133.713 192.186 139.952 192.619 146.509C193.053 153.066 191.338 159.586 187.732 165.089C184.126 170.593 178.824 174.782 172.622 177.029C172.511 177.07 172.396 177.111 172.28 177.152C169.039 178.282 165.629 178.857 162.195 178.854ZM162.195 119.75C156.48 119.75 150.895 121.439 146.145 124.601C141.395 127.764 137.694 132.259 135.512 137.517C133.329 142.775 132.763 148.56 133.884 154.138C135.006 159.717 137.764 164.839 141.811 168.856C142.035 169.076 142.267 169.299 142.501 169.517C143.909 170.826 145.444 171.991 147.085 172.996C147.415 173.198 147.726 173.381 148.036 173.554C149.695 174.485 151.443 175.249 153.254 175.836C153.575 175.94 153.891 176.036 154.197 176.122C159.955 177.767 166.084 177.596 171.741 175.632L172.068 175.515C178.446 173.203 183.803 168.728 187.198 162.874C190.592 157.021 191.806 150.165 190.628 143.508C189.449 136.852 185.953 130.822 180.754 126.478C175.554 122.133 168.983 119.751 162.195 119.75L162.195 119.75Z" fill="#CCCCCC"/>
<path d="M278.992 323.999H119.185C117.173 323.997 115.244 323.2 113.822 321.783C112.399 320.367 111.599 318.447 111.597 316.443V100.444C111.599 98.441 112.399 96.5206 113.822 95.1041C115.244 93.6877 117.173 92.8909 119.185 92.8887H278.992C281.004 92.8909 282.933 93.6877 284.355 95.1041C285.778 96.5206 286.578 98.441 286.58 100.444V316.443C286.578 318.447 285.778 320.367 284.355 321.783C282.933 323.2 281.004 323.997 278.992 323.999ZM119.185 93.7775C117.41 93.7795 115.708 94.4826 114.453 95.7324C113.198 96.9822 112.491 98.6767 112.489 100.444V316.443C112.491 318.211 113.198 319.905 114.453 321.155C115.708 322.405 117.41 323.108 119.185 323.11H278.992C280.767 323.108 282.469 322.405 283.724 321.155C284.979 319.905 285.686 318.211 285.688 316.443V100.444C285.686 98.6767 284.979 96.9822 283.724 95.7324C282.469 94.4826 280.767 93.7795 278.992 93.7775H119.185Z" fill="#3F3D56"/>
<path d="M248.055 148.988H202.835C201.886 148.988 200.977 148.613 200.306 147.945C199.635 147.277 199.258 146.371 199.258 145.426C199.258 144.481 199.635 143.575 200.306 142.907C200.977 142.24 201.886 141.864 202.835 141.864H248.055C249.004 141.864 249.914 142.24 250.585 142.907C251.255 143.575 251.632 144.481 251.632 145.426C251.632 146.371 251.255 147.277 250.585 147.945C249.914 148.613 249.004 148.988 248.055 148.988Z" fill="#00DBFF"/>
<path d="M262.812 161.009H202.835C201.886 161.009 200.977 160.634 200.306 159.966C199.635 159.298 199.258 158.392 199.258 157.447C199.258 156.502 199.635 155.596 200.306 154.928C200.977 154.261 201.886 153.885 202.835 153.885H262.812C263.76 153.885 264.67 154.261 265.341 154.928C266.012 155.596 266.389 156.502 266.389 157.447C266.389 158.392 266.012 159.298 265.341 159.966C264.67 160.634 263.76 161.009 262.812 161.009Z" fill="#00DBFF"/>
<path d="M247.99 207.115H135.365C134.417 207.115 133.507 206.74 132.836 206.072C132.165 205.404 131.788 204.498 131.788 203.554C131.788 202.609 132.165 201.703 132.836 201.035C133.507 200.367 134.417 199.992 135.365 199.992H247.99C248.938 199.992 249.848 200.367 250.519 201.035C251.19 201.703 251.567 202.609 251.567 203.554C251.567 204.498 251.19 205.404 250.519 206.072C249.848 206.74 248.938 207.115 247.99 207.115Z" fill="#CCCCCC"/>
<path d="M262.746 219.136H135.365C134.417 219.136 133.507 218.761 132.836 218.093C132.165 217.425 131.788 216.519 131.788 215.575C131.788 214.63 132.165 213.724 132.836 213.056C133.507 212.388 134.417 212.013 135.365 212.013H262.746C263.695 212.013 264.605 212.388 265.276 213.056C265.947 213.724 266.324 214.63 266.324 215.575C266.324 216.519 265.947 217.425 265.276 218.093C264.605 218.761 263.695 219.136 262.746 219.136Z" fill="#CCCCCC"/>
<path d="M247.989 246.765H135.365C134.417 246.764 133.508 246.388 132.838 245.72C132.168 245.053 131.792 244.147 131.792 243.203C131.792 242.26 132.168 241.354 132.838 240.686C133.508 240.019 134.417 239.643 135.365 239.642H247.989C248.938 239.642 249.848 240.017 250.519 240.685C251.19 241.353 251.567 242.259 251.567 243.203C251.567 244.148 251.19 245.054 250.519 245.722C249.848 246.39 248.938 246.765 247.989 246.765Z" fill="#CCCCCC"/>
<path d="M262.746 258.787H135.365C134.417 258.786 133.508 258.41 132.838 257.742C132.168 257.074 131.792 256.169 131.792 255.225C131.792 254.281 132.168 253.376 132.838 252.708C133.508 252.04 134.417 251.664 135.365 251.663H262.746C263.695 251.663 264.605 252.038 265.275 252.706C265.946 253.374 266.323 254.28 266.323 255.225C266.323 256.17 265.946 257.076 265.275 257.743C264.605 258.411 263.695 258.787 262.746 258.787Z" fill="#CCCCCC"/>
<path d="M247.99 286.416H135.365C134.417 286.416 133.507 286.04 132.836 285.372C132.165 284.704 131.788 283.798 131.788 282.854C131.788 281.909 132.165 281.003 132.836 280.335C133.507 279.667 134.417 279.292 135.365 279.292H247.99C248.938 279.292 249.848 279.667 250.519 280.335C251.19 281.003 251.567 281.909 251.567 282.854C251.567 283.798 251.19 284.704 250.519 285.372C249.848 286.04 248.938 286.416 247.99 286.416Z" fill="#CCCCCC"/>
<path d="M262.746 298.437H135.365C134.417 298.437 133.507 298.061 132.836 297.393C132.165 296.725 131.788 295.819 131.788 294.875C131.788 293.93 132.165 293.024 132.836 292.356C133.507 291.688 134.417 291.313 135.365 291.313H262.746C263.695 291.313 264.605 291.688 265.276 292.356C265.947 293.024 266.324 293.93 266.324 294.875C266.324 295.819 265.947 296.725 265.276 297.393C264.605 298.061 263.695 298.437 262.746 298.437Z" fill="#CCCCCC"/>
<path d="M277.137 274.814C272.505 274.809 267.918 275.713 263.637 277.474C259.356 279.235 255.466 281.819 252.189 285.079C248.912 288.338 246.312 292.208 244.538 296.468C242.765 300.728 241.852 305.295 241.852 309.907C241.852 314.519 242.765 319.085 244.538 323.345C246.312 327.606 248.912 331.476 252.189 334.735C255.466 337.994 259.356 340.578 263.637 342.34C267.918 344.101 272.505 345.005 277.137 345H277.137C286.475 344.983 295.424 341.279 302.02 334.699C308.617 328.12 312.322 319.203 312.322 309.907C312.322 300.61 308.617 291.694 302.02 285.114C295.424 278.535 286.475 274.83 277.137 274.814Z" fill="#00DBFF"/>
<path d="M273.793 324.481C272.865 324.483 271.962 324.184 271.219 323.63L271.173 323.595L261.481 316.213C260.575 315.521 259.983 314.499 259.834 313.371C259.685 312.244 259.991 311.105 260.686 310.202C261.381 309.3 262.406 308.71 263.538 308.56C264.67 308.411 265.815 308.715 266.722 309.406L273 314.199L287.836 294.929C288.18 294.482 288.609 294.107 289.099 293.825C289.588 293.544 290.129 293.361 290.689 293.287C291.25 293.213 291.819 293.25 292.366 293.396C292.912 293.541 293.424 293.792 293.873 294.135L293.873 294.135L293.874 294.136L293.782 294.263L293.876 294.136C294.782 294.828 295.374 295.85 295.523 296.977C295.673 298.104 295.367 299.244 294.673 300.147L277.223 322.804C276.819 323.326 276.3 323.748 275.706 324.038C275.112 324.328 274.458 324.478 273.797 324.476L273.793 324.481Z" fill="white"/>
</g>
<defs>
<clipPath id="clip0_355_975">
<rect width="383" height="345" fill="white"/>
</clipPath>
</defs>
</svg>
